<svg id="Layer_1" data-name="Layer 1" xmlns="http://www.w3.org/2000/svg" viewBox="0 0 1096.08 886.25"><defs><style>.cls-1{fill:#f3f6fd;}</style></defs><circle class="cls-1" cx="208.34" cy="73.28" r="73.28"/><circle class="cls-1" cx="548.52" cy="73.28" r="73.28"/><circle class="cls-1" cx="892.54" cy="73.28" r="73.28"/><path class="cls-1" d="M1033.28,263.45a213.38,213.38,0,0,0-151.86-62.91c-2.5,0-5,.1-7.46.18A213.21,213.21,0,0,0,730,263c.44.52.88,1,1.32,1.52a234.25,234.25,0,0,1,51.44,114.88L814.11,348A94.39,94.39,0,0,1,874,320.54c2.47-.19,4.95-.36,7.46-.36A95.18,95.18,0,0,1,948.7,482.54L874,557.28,714.19,717.09,648,650.9l-84.58,84.64L714.19,886.25,874,726.54l159.32-159.33C1117,483.43,1117,347.18,1033.28,263.45Z" transform="translate(0)"/><path class="cls-1" d="M701,567.16a214.32,214.32,0,0,0,62.12-168.09h0A213.81,213.81,0,0,0,714.6,278.43c-4.27-5.14-8.78-10.16-13.6-15a213.34,213.34,0,0,0-151.87-62.89H547a213.36,213.36,0,0,0-151.87,62.91c-4.81,4.82-9.32,9.83-13.59,15A213.8,213.8,0,0,0,333,399.09L381.89,448h0L333,399.09a214.26,214.26,0,0,0,62.13,168.09l53,53,84.57-84.64-53-53a95.25,95.25,0,0,1-10.61-121.7h0L481.86,348a92.64,92.64,0,0,1,131-1.35q.68.66,1.35,1.35l12.91,12.9h0A95.18,95.18,0,0,1,616.4,482.54L548,550.94l-84.58,84.6-81.57,81.57L221,556.2l-73.63-73.66a95.13,95.13,0,0,1,67.27-162.41c2.14,0,4.24.17,6.36.31A94.31,94.31,0,0,1,281.93,348l31.39,31.39a234.13,234.13,0,0,1,51.43-114.85c.43-.52.88-1,1.32-1.53A213.24,213.24,0,0,0,221,200.68c-2.12-.06-4.23-.15-6.36-.15A213.34,213.34,0,0,0,62.79,263.46c-83.73,83.73-83.72,220,0,303.7L221,725.37,381.89,886.25,548,720.11l84.56-84.57Z" transform="translate(0)"/></svg>