<svg id="Layer_1" data-name="Layer 1" xmlns="http://www.w3.org/2000/svg" viewBox="0 0 344.06 331.44"><defs><style>.cls-1{fill:#d4e3fb;}.cls-2{fill:#f1f1f9;}.cls-3{fill:#f2cbb1;}.cls-4{fill:#e5c0a8;}.cls-5{fill:#443d4f;}.cls-6{fill:#2661e4;}.cls-7{fill:#51495b;}.cls-8{fill:#efe6e8;}.cls-9{fill:#2b80fc;}.cls-10{fill:#51d65e;}.cls-11{fill:#32b738;}</style></defs><path class="cls-1" d="M546.79,432.5c-.3-8.72,4.81-50.84,4.81-50.84H517.91s5.11,42.12,4.81,50.84-6.92,15.8-6.92,27.08c0,4.84,1.58,8,3.39,10a10.16,10.16,0,0,0,7.56,3.3h16a10.2,10.2,0,0,0,7.57-3.3c1.8-2,3.38-5.12,3.38-10C553.71,448.3,547.09,441.23,546.79,432.5Z" transform="translate(-222.86 -141.41)"/><path class="cls-2" d="M527.39,381.66s-34.83-48.09-26.4-61c6.16-9.43,27.6,54.23,27.6,54.23s-27.6-76.33-16-81.23c9.89-4.15,19.71,79.27,19.71,79.27s-13.42-86.71-3.67-88.09c11.81-1.68,7.13,89.29,7.13,89.29s-1.21-84,13.69-84.11-10.38,86.37-10.38,86.37,16.54-71,26-62.72-21.81,68-21.81,68Z" transform="translate(-222.86 -141.41)"/><path class="cls-1" d="M253.93,446.25c-.2-5.76,3.17-33.52,3.17-33.52H234.88s3.38,27.76,3.18,33.52-4.56,10.41-4.56,17.85a9.42,9.42,0,0,0,2.23,6.57,6.72,6.72,0,0,0,5,2.17h10.55a6.73,6.73,0,0,0,5-2.17,9.42,9.42,0,0,0,2.23-6.57C258.49,456.66,254.12,452,253.93,446.25Z" transform="translate(-222.86 -141.41)"/><path class="cls-2" d="M241.13,412.73s-23-31.71-17.4-40.22c4.06-6.22,18.2,35.75,18.2,35.75s-18.2-50.32-10.52-53.55c6.52-2.73,13,52.26,13,52.26s-8.85-57.17-2.42-58.08c7.78-1.11,4.7,58.88,4.7,58.88s-.8-55.39,9-55.46-6.84,56.95-6.84,56.95S259.78,362.45,266,367.9s-14.38,44.83-14.38,44.83Z" transform="translate(-222.86 -141.41)"/><path class="cls-2" d="M363.13,409.34s-17.48-15.79-17.7-26.51,21.43,22.45,21.43,22.45-15.57-35.42-7.78-42.42S373.52,402,373.52,402s-2-44.9,8.57-43.43-1.58,44.89-1.58,44.89,11.28-35.42,19.86-35.87-13.88,37.79-13.88,37.79,20.19-25.94,26.62-18.5-21.55,22.45-21.55,22.45Z" transform="translate(-222.86 -141.41)"/><path class="cls-2" d="M289.93,352.18s-23-32.37-31.11-55.58,3.84-10,14.49,7.34,19.18,44.35,19.18,44.35S268,274.58,275.75,265.18s22.92,82.23,22.92,82.23-10.23-79.59-1.92-90.75,6.82,90.75,6.82,90.75,2.55-86.21,12.35-88.18S308,348,308,348s16.83-76.65,25.35-76.65-21.73,75.77-21.73,75.77,25.35-63.44,37.82-59-36.23,64.09-36.23,64.09Z" transform="translate(-222.86 -141.41)"/><path class="cls-3" d="M417.24,225.91l1.44-2.82L415,214.86l7.66-16,13.33,14.09s3.27,13.93-2.94,22.62S416.32,237.88,417.24,225.91Z" transform="translate(-222.86 -141.41)"/><path class="cls-4" d="M407.75,263.51s1.66,23.76,0,24.22-18.8-8.13-21.35-7.37-3.76,6.61-3.76,6.61,21.12,16.55,32.44,14.44S427.16,276,427.16,276V265.47Z" transform="translate(-222.86 -141.41)"/><path class="cls-5" d="M445.86,295.18c-10.48,38.12.31,142.33.31,142.33h13.74a58,58,0,0,0,5.23-18.67c.87-10,.09-18.19.76-24.44S482,339.3,481.14,320s-8.8-30-8.8-30S447.34,289.79,445.86,295.18Z" transform="translate(-222.86 -141.41)"/><path class="cls-6" d="M412.83,230.93a26.6,26.6,0,0,0-5.66,14.61c-.45,8.58,0,22.34,0,22.34s12.63,3.95,17.6-.57S412.83,230.93,412.83,230.93Z" transform="translate(-222.86 -141.41)"/><path class="cls-7" d="M463.81,293.77l12.7,143.74h13.74a58.42,58.42,0,0,0,4.19-18.95c.33-10.06-.89-18.08-.57-24.34s13.07-55.84,11.16-75.09-10.43-29.54-10.43-29.54Z" transform="translate(-222.86 -141.41)"/><polygon class="cls-3" points="223.31 296.11 223.31 326.55 232.25 326.55 237.05 296.11 223.31 296.11"/><polygon class="cls-3" points="232.25 326.55 232.25 329.4 217.37 329.4 223.31 326.55 232.25 326.55"/><path class="cls-7" d="M455.11,472.84H436.24s-1.06-.29-.53-1,4.52-1,4.52-1l6.34-.05c1.1,0,5.15-.45,5.9-1.17a8,8,0,0,1,2.64-1.62A8,8,0,0,1,455.11,472.84Z" transform="translate(-222.86 -141.41)"/><polygon class="cls-3" points="253.65 296.11 253.65 326.55 261.65 326.55 267.39 296.11 253.65 296.11"/><polygon class="cls-3" points="261.65 326.55 261.65 329.4 247.71 329.4 253.65 326.55 261.65 326.55"/><path class="cls-7" d="M484.51,472.84H466.58s-1.06-.29-.53-1,4.52-1,4.52-1l6.34-.05c1.1,0,4.21-.45,5-1.17a8.14,8.14,0,0,1,2.64-1.62A7.92,7.92,0,0,1,484.51,472.84Z" transform="translate(-222.86 -141.41)"/><path class="cls-3" d="M421.52,185.81c5.79,14,3.79,31.11-5.6,35.55s-22.59-5.48-28.38-19.47-2-26.75,7.4-31.19S415.72,171.82,421.52,185.81Z" transform="translate(-222.86 -141.41)"/><path class="cls-8" d="M391.23,183a13.13,13.13,0,0,0,9.16,6.05c6.27.86,10.34-2.13,16.53-.37s7.85,13.56,7.85,13.56,6.5-8.51,5.74-16.93-6-8.56-7.8-11.06-.93-6.48-5.07-10.7-11.39-3.88-15.24-2.11-12.3.7-18.1,8.11-3.37,13-3.9,15.08-2.5,6.89.24,13.68,8.52,7.06,8.52,7.06-2.7-5.63-1.58-10.17S390.47,186.08,391.23,183Z" transform="translate(-222.86 -141.41)"/><path class="cls-8" d="M403.71,161.74s-11.46-.39-9.58-11.6,17-10.83,21.17-3.39-7.4,14.35-7.4,14.35Z" transform="translate(-222.86 -141.41)"/><path class="cls-9" d="M417.24,225.91s1.32,16.1,11.48,8.88,7.22-21.87,7.22-21.87,18.06-2.43,31.58,10.39c23.47,22.23,31.63,58.88,34.78,82.12-16.69,9-59.67,8.85-59.67,8.85s-1.81-25.72-8.35-34c-1.33-1.68-11.81-1-15.64-12.94s-3.91-27.9-6.85-33.09C411.57,230.65,417.24,225.91,417.24,225.91Z" transform="translate(-222.86 -141.41)"/><path class="cls-7" d="M421,272.26s32.4-11.23,35.26-11.38,12.18,17.45,16.09,25.57,26.62,0,26.62,0,4.28,16.24,5.6,28.88c-18.53,1.06-37,20.92-37,20.92s-5.9-18.51-7.26-19.56-17.67-2.41-17.67-2.41-5.34-23.92-7.45-28.88S420.89,274.82,421,272.26Z" transform="translate(-222.86 -141.41)"/><path class="cls-10" d="M380.47,305.53s29.08-11.73,30.46-10.79,37.32,53.38,37.32,56.82-39.54,25.87-45,25.87S380,309.66,380.47,305.53Z" transform="translate(-222.86 -141.41)"/><path class="cls-10" d="M418.94,305.84s-2.75-14.14,8.93-16,18.78,22.91,19.24,35S444.22,344,444.22,344l-2.76-2.4a61.83,61.83,0,0,0,1.83-20.15c-.92-10.69-6.11-24-11.71-27.19s-9.09,2.27-9.43,6.51a57.66,57.66,0,0,0,.68,10.76S419.22,309.34,418.94,305.84Z" transform="translate(-222.86 -141.41)"/><path class="cls-10" d="M380.47,305.53s-3.2-11.67-1-16.6,12.37-10.76,20.72-7,12,14.35,12,14.35l-4-.44s-3.95-8.13-9.73-10.88c-3.93-1.86-13.57,1.09-15.52,5.56s1.5,14.42,1.5,14.42Z" transform="translate(-222.86 -141.41)"/><polygon class="cls-10" points="176.29 227.95 117.87 194.05 117.87 190.69 174.28 214.05 176.29 227.95"/><polygon class="cls-10" points="117.87 194.05 110.21 203.74 114.04 181.76 117.87 190.69 117.87 194.05"/><path class="cls-3" d="M447.15,307.36s-7-1.2-8,1.05,1.4,10.45,3.82,10.42,7.25-3.54,7.77-4.91S447.15,307.36,447.15,307.36Z" transform="translate(-222.86 -141.41)"/><path class="cls-3" d="M386.19,279.67s-4.52,2-4.91,5.19-.06,6,5.7,4.17,7.59-4.68,6.08-8.23S386.19,279.67,386.19,279.67Z" transform="translate(-222.86 -141.41)"/><path class="cls-4" d="M417.48,220.46a14.71,14.71,0,0,0,5.92-8.8,35.06,35.06,0,0,0,1.37-9.45l.44-.62,2.83,3a37.06,37.06,0,0,1-1.22,14.09c-2.17,7.18-8.14,4.43-8.14,4.43Z" transform="translate(-222.86 -141.41)"/><path class="cls-7" d="M449.2,213.79s-6.05,5.58-5.14,17.76,14.24,30.77,14.24,30.77l-6.68,1.19s-10.78-13.72-12.58-29.4,5.93-21,5.93-21Z" transform="translate(-222.86 -141.41)"/><path class="cls-6" d="M458.5,248.85l-9.18-14.44s6.92,17,9.18,22.75,2.07,8.13,2.07,8.13l10.68,18.94,2.14-12.52Z" transform="translate(-222.86 -141.41)"/><path class="cls-3" d="M458.5,248.85s13.12,21.38,11.77,33.44-23.12,25.07-23.12,25.07l2.55,6.92s33.61-10.75,37.9-29-9.25-45.8-9.25-45.8Z" transform="translate(-222.86 -141.41)"/><path class="cls-6" d="M415,232.12s2.56,11.17,3.71,18.61-1.18,10.15-1.18,10.15-4.33-10.83-4.78-16.92A26.92,26.92,0,0,1,415,232.12Z" transform="translate(-222.86 -141.41)"/><path class="cls-7" d="M412.83,230.93s-9.06,16.6,8.15,41.33c3.37,1.41,4.7,0,4.7,0s-7.79-12.88-10.2-24.16,1.76-22.19,1.76-22.19S414,228,412.83,230.93Z" transform="translate(-222.86 -141.41)"/><polygon class="cls-1" points="48.3 287.79 48.3 294.41 48.3 331.44 54.07 331.44 54.07 294.41 196.68 294.41 196.68 331.44 202.45 331.44 202.45 294.41 202.45 287.79 48.3 287.79"/><path class="cls-1" d="M329.17,352.18H276.93s14.69,77,13.79,77h24.66C314.48,429.19,329.17,352.18,329.17,352.18Z" transform="translate(-222.86 -141.41)"/><polygon class="cls-1" points="155.17 267.93 154.94 267.93 125.38 267.93 130.8 287.79 154.94 287.79 155.17 287.79 179.3 287.79 184.73 267.93 155.17 267.93"/><rect class="cls-2" x="65.03" y="285.19" width="15.15" height="2.59"/><rect class="cls-2" x="80.19" y="285.19" width="15.15" height="2.59"/><rect class="cls-2" x="128.41" y="285.2" width="52.81" height="2.59"/><polygon class="cls-11" points="161.57 163.55 184.73 234.73 196.68 228.93 166.06 160.78 161.57 163.55"/></svg>