<svg id="Layer_1" data-name="Layer 1" xmlns="http://www.w3.org/2000/svg" viewBox="0 0 386.8 367.27"><defs><style>.cls-1{fill:#443d4f;}.cls-2{fill:#51d65e;}.cls-3{fill:#51495b;}.cls-4{fill:#efe6e8;}.cls-5{fill:#2661e4;}.cls-6{fill:#778491;}.cls-7{fill:#2b80fc;}.cls-8{fill:#ffcaa6;}.cls-9{fill:#d1b3a1;}.cls-10{fill:#3098be;}.cls-11{fill:#62e86b;}.cls-12{fill:#d4e3fb;}.cls-13{fill:#f1f1f9;}</style></defs><path class="cls-1" d="M400.2,308s-30.33,51.13-31.88,60.05,0,44,0,44h19.19s.77-9.38,1.55-16.3-1.24-12.91-.47-15.53,43.64-45.66,43.64-46.58,1.08-22,1.08-22Z" transform="translate(-202.66 -122.95)"/><path class="cls-2" d="M450.84,184.23s17.94,1.86,20.54,11.93-.46,55.83,0,64.82,20,49.57-17.87,51.42S431.23,191,450.84,184.23Z" transform="translate(-202.66 -122.95)"/><polygon class="cls-3" points="136.58 318.4 106 8.73 103.22 8.73 134.66 318.4 136.58 318.4"/><path class="cls-4" d="M413.5,152.51s-3.05,1.94-3.05,7,3.9,6.24,3.9,6.24l5-10.87Z" transform="translate(-202.66 -122.95)"/><path class="cls-5" d="M405.53,200.55s-6.34,5.77-13.13,16.84-16.69,30-27.38,37.86-39.65,7.81-39.65,7.81V273.9s43.56,11,61-4.21S405.53,200.55,405.53,200.55Z" transform="translate(-202.66 -122.95)"/><path class="cls-3" d="M450.05,296.58s2.76,11.08,4.3,38.8c1.48,26.48-1.54,53.06-1.11,59.76h-20L416.3,330.52l-3.75-34.13Z" transform="translate(-202.66 -122.95)"/><path class="cls-6" d="M380.88,435.25s2,6,0,6.05-17.91,0-17.91,0-3.88-1.31-2.42-3,9.88-1.74,9.69-3.19C371.13,433.78,380.88,435.25,380.88,435.25Z" transform="translate(-202.66 -122.95)"/><path class="cls-6" d="M453.84,458.53s2.05,6.66,0,6.76-17.91,0-17.91,0-3.88-1.31-2.43-3,10.13-2.29,9.94-3.75C444.35,457.21,453.84,458.53,453.84,458.53Z" transform="translate(-202.66 -122.95)"/><path class="cls-3" d="M433.22,395.14l9.93,63.39h11.61s3.86-24.07,1.89-37.5-3.41-21.16-3.41-25.89S433.22,395.14,433.22,395.14Z" transform="translate(-202.66 -122.95)"/><path class="cls-7" d="M453.69,319.33a3.2,3.2,0,0,0,3.21-3c.85-15.71,1.31-47.53,2.1-60.55,1.18-19.48,6.12-44.66,5.48-52.49s-16.89-10.93-16.89-10.93l-22.3-1.18s-14.45.34-19.76,9.39c-3.15,5.37-10.23,26.11-15,56-5.75,36.25-2.55,44.86-1.09,58.37.25,2.37,1.71,4.4,4.11,4.4Z" transform="translate(-202.66 -122.95)"/><path class="cls-8" d="M428.8,180.07s.36,7,0,8.88-3.51,2.21-3.51,2.21-7.48,17.34,4.19,14.75,18.11-13.57,18.11-13.57-3.16-3.82-3.37-6.5c-.33-4.28.06-13,.06-13Z" transform="translate(-202.66 -122.95)"/><path class="cls-7" d="M458.46,196.16s9.88,4.71,21.8,15.27,29.47,35.76,24.32,51.8-42.17,24-42.17,24l-4-9.6s19.38-12.8,21.64-21.44-21.64-23.36-21.64-23.36S454.54,206.81,458.46,196.16Z" transform="translate(-202.66 -122.95)"/><polygon class="cls-5" points="258.51 111.69 252.1 104.81 254.43 189.46 258.51 111.69"/><path class="cls-9" d="M459.17,279.4s-6.05-2.2-10.24-1.4-9.42,5.68-8.29,7.52,7.33.24,10.31,0,6,3.75,11.09.87Z" transform="translate(-202.66 -122.95)"/><path class="cls-9" d="M325.37,264.44s-6.19-2.77-8.59-2.46-3.79,3-3.4,6.92.85,6.15,5.26,5.61a17.59,17.59,0,0,0,6.73-2Z" transform="translate(-202.66 -122.95)"/><path class="cls-6" d="M367.47,408.74h21.3l-7.13,32L369,436s1.42-.05.72-6.34S367.47,408.74,367.47,408.74Z" transform="translate(-202.66 -122.95)"/><path class="cls-6" d="M438.26,432.73h19.35s-1.39,24.24-3,31.95C447,461.93,440,460.1,440,460.1s3-.39,2.49-3.86S438.26,432.73,438.26,432.73Z" transform="translate(-202.66 -122.95)"/><path class="cls-9" d="M450.94,165.14c-4.14,15.55-16.16,28.47-26.05,25.87s-13.91-19.74-9.77-35.29,14.87-23.62,24.77-21S455.09,149.59,450.94,165.14Z" transform="translate(-202.66 -122.95)"/><path class="cls-5" d="M447.59,198.42s-3.49,6.23-3.72,7.76,0,18.25-17.18,23.9-25.72-4.65-25.92-17.54,13.74-14.75,13.74-14.75Z" transform="translate(-202.66 -122.95)"/><path class="cls-10" d="M415.14,148.24s5-17.66,9.9-20.16,36.55,7,35,17.64-3.9,14.35-3.9,14.35S427.55,158.57,415.14,148.24Z" transform="translate(-202.66 -122.95)"/><path class="cls-4" d="M413.5,170.06s-4.73,12.5-8.42,23-3.85,20.16,0,27.15,14.09,10.16,24.65,5,11.74-15.33,12.24-19,6.37-3.83,8.22-16.33,0-15.49,0-15.49,7.48-7.95,7.73-10.51-9.05-3.81-9.05-3.81-.63,3.31-1.51,6.74-5.66,8.87-9.18,9.87-7-4.37-14.15-6.37S413.5,170.06,413.5,170.06Z" transform="translate(-202.66 -122.95)"/><path class="cls-10" d="M391.5,149.24s7.21-3.17,16.94,2,15.79,10,24.49,10.16,16.92-.33,25.47,3.5,11.07,7.83,13.25,7.66,4.19-.5,2.6-1.25-4.7-1.75-6.63-3.25S458.4,159,450.1,156.15s-27.33-7.41-35.54-9-12.24-1.67-17.94-1.17S388.23,148.32,391.5,149.24Z" transform="translate(-202.66 -122.95)"/><polygon class="cls-2" points="103.46 11.38 53.23 38.25 107.9 59.97 103.46 11.38"/><path class="cls-11" d="M458.46,196.16s-10.29,6.9-12.61,31.59S461.16,262,461.16,262l-1,11s-20.49-11.3-22.49-35.28,14.72-44.08,14.72-44.08A7,7,0,0,1,458.46,196.16Z" transform="translate(-202.66 -122.95)"/><path class="cls-11" d="M402.25,209.78s-10.08,34.54-12.8,53.69c.14-28,6.07-57.72,14.64-67.31C403.18,199.78,401.77,206.05,402.25,209.78Z" transform="translate(-202.66 -122.95)"/><path class="cls-12" d="M272.44,490.22s38.37-49.52,72-49.52,34.51.63,48,5.55,29.55,19.05,45.88,19.05,33.51,3.39,48.05,8.31,24.15,16.61,24.15,16.61Z" transform="translate(-202.66 -122.95)"/><path class="cls-13" d="M217.2,255.25h58.49s14.4-.2,16.25-6.92-11.84-7.87-11.84-7.87-5.1-18.68-18.57-19.15-17.17,14.07-17.17,14.07-4.18-9-12.31-7.63-6.26,14-6.26,14-6.74-8.87-11.84-4.95,0,7.84,0,7.84-10-.23-11.15,5.07S207.45,255.25,217.2,255.25Z" transform="translate(-202.66 -122.95)"/><path class="cls-13" d="M514.54,394.28H573s14.39-.2,16.25-6.92-11.84-7.87-11.84-7.87-5.11-18.68-18.57-19.14-17.18,14.07-17.18,14.07-4.18-9-12.3-7.63-6.27,14-6.27,14-6.73-8.87-11.84-4.95,0,7.84,0,7.84-10-.23-11.14,5.08S504.79,394.28,514.54,394.28Z" transform="translate(-202.66 -122.95)"/><path class="cls-13" d="M500.21,151h58.06s7.52-.48,7.11-7-9.61-3.74-9.61-3.74,2.78-15.63-11.56-17.15-14.06,10.65-14.06,10.65-1.95-4.15-4.32-3.6-2.92,5.4-2.92,5.4-6.13-12.18-18.38-7.61S498,143.18,498,143.18s-6-1.29-7.6,2.72S492.69,151,500.21,151Z" transform="translate(-202.66 -122.95)"/></svg>