<svg id="Layer_1" data-name="Layer 1" xmlns="http://www.w3.org/2000/svg" viewBox="0 0 86.03 92.14"><defs><style>.cls-1{fill:#51d65e;}</style></defs><path class="cls-1" d="M86.36,61.65A5.41,5.41,0,0,0,82,60.46L49.15,66.17l-9.32-9.32a1.66,1.66,0,0,0-1.17-.49H22.12a1.65,1.65,0,0,0-1.66-1.65H2.26V58h9.93V81.18H2.26v3.31h18.2a1.66,1.66,0,0,0,1.66-1.66h4.57l17.68,8.85a5.48,5.48,0,0,0,2.43.57,5.43,5.43,0,0,0,2.72-.74L85.61,70.46a5.45,5.45,0,0,0,2.69-4.67,5.39,5.39,0,0,0-1.94-4.14ZM18.81,81.18H15.49V58h3.32ZM83.94,67.6,47.85,88.65a2.06,2.06,0,0,1-2,.06l-18-9a1.72,1.72,0,0,0-.74-.18h-5V59.67H38l13,13A3,3,0,1,1,46.73,77l-8.55-8.55-2.34,2.33,8.55,8.56a6.33,6.33,0,1,0,9-8.95L52,69l30.52-5.31a2.1,2.1,0,0,1,1.41,3.88Zm0,0" transform="translate(-2.26 -0.11)"/><path class="cls-1" d="M42.39,35.4" transform="translate(-2.26 -0.11)"/><path class="cls-1" d="M50.69,62.47a1.68,1.68,0,0,0,2.41,0L79.33,34.83a21.1,21.1,0,0,0,0-28.72A18.74,18.74,0,0,0,51.9,6.05a18.75,18.75,0,0,0-27.44.06,21.1,21.1,0,0,0,0,28.72ZM26.86,8.39a15.45,15.45,0,0,1,22.69,0l1.14,1.2a1.7,1.7,0,0,0,2.4,0l1.15-1.2a15.45,15.45,0,0,1,22.69,0,17.76,17.76,0,0,1,0,24.16l-25,26.37-25-26.37a17.76,17.76,0,0,1,0-24.16Zm0,0" transform="translate(-2.26 -0.11)"/><path class="cls-1" d="M60.48,23.37H56.9V19.89a1.34,1.34,0,0,0-1.37-1.33H48.35A1.34,1.34,0,0,0,47,19.89v3.48H43.41a1.35,1.35,0,0,0-1.36,1.33v7A1.34,1.34,0,0,0,43.41,33H47v3.49a1.35,1.35,0,0,0,1.36,1.33h7.18a1.35,1.35,0,0,0,1.37-1.33V33h3.58a1.34,1.34,0,0,0,1.36-1.33v-7A1.35,1.35,0,0,0,60.48,23.37Zm-1.37,7H55.53a1.34,1.34,0,0,0-1.36,1.33v3.49H49.72V31.69a1.35,1.35,0,0,0-1.37-1.33H44.78V26h3.57a1.35,1.35,0,0,0,1.37-1.33V21.22h4.44V24.7A1.35,1.35,0,0,0,55.53,26h3.58Z" transform="translate(-2.26 -0.11)"/></svg>