<svg id="Layer_1" data-name="Layer 1" xmlns="http://www.w3.org/2000/svg" viewBox="0 0 44.99 44.99"><defs><style>.cls-1{fill:#51d65e;}</style></defs><path class="cls-1" d="M-149.38-152.12h-1.5v-1.5a1.33,1.33,0,0,0-1.33-1.32,1.32,1.32,0,0,0-1.32,1.32v1.5H-155a1.32,1.32,0,0,0-1.32,1.32,1.33,1.33,0,0,0,1.32,1.33h1.5v1.5a1.32,1.32,0,0,0,1.32,1.32,1.33,1.33,0,0,0,1.33-1.32v-1.5h1.5a1.33,1.33,0,0,0,1.32-1.33,1.32,1.32,0,0,0-1.32-1.32Zm0,0" transform="translate(162 162)"/><path class="cls-1" d="M-133.86-143.12H-124a1.33,1.33,0,0,0,1.33-1.32,1.34,1.34,0,0,0-1.33-1.33h-9.88a1.33,1.33,0,0,0-1.32,1.33,1.32,1.32,0,0,0,1.32,1.32Zm0,0" transform="translate(162 162)"/><path class="cls-1" d="M-133.86-137.47H-124a1.34,1.34,0,0,0,1.33-1.33,1.33,1.33,0,0,0-1.33-1.32h-9.88a1.32,1.32,0,0,0-1.32,1.32,1.33,1.33,0,0,0,1.32,1.33Zm0,0" transform="translate(162 162)"/><path class="cls-1" d="M-118.33-159.18h-25.53l-1.62-2.27a1.35,1.35,0,0,0-1.08-.55h-14.12a1.32,1.32,0,0,0-1.32,1.32v42.35a1.32,1.32,0,0,0,1.32,1.32h42.35a1.32,1.32,0,0,0,1.32-1.32v-39.52a1.33,1.33,0,0,0-1.32-1.33Zm-18.13,39.53h-17.25v-2.78a8.64,8.64,0,0,1,14.73-6.1,8.55,8.55,0,0,1,2.52,6.1Zm-12.27-17.7a3.64,3.64,0,0,1,3.65-3.65,3.65,3.65,0,0,1,3.65,3.65,3.65,3.65,0,0,1-3.65,3.65,3.66,3.66,0,0,1-3.65-3.65Zm29.08,17.7h-14.16v-2.78a11.29,11.29,0,0,0-6.9-10.4,6.3,6.3,0,0,0-4.37-10.82,6.3,6.3,0,0,0-4.37,10.83,11.29,11.29,0,0,0-6.9,10.39v2.78h-3v-39.7h12.11l6.66,9.32a1.33,1.33,0,0,0,1.08.56h19.85Zm0-32.47h-19.17l-3.15-4.41h22.32Zm0,0" transform="translate(162 162)"/></svg>