<svg id="Layer_1" data-name="Layer 1" xmlns="http://www.w3.org/2000/svg" viewBox="0 0 47.98 45.16"><defs><style>.cls-1{fill:#51d65e;}</style></defs><path class="cls-1" d="M-121.16-141.53h-7v-3.67a4.81,4.81,0,0,0-4.8-4.8h-10.2a4.81,4.81,0,0,0-4.8,4.8v3.67h-6.94a7.15,7.15,0,0,0-7.15,7.15V-112a7.16,7.16,0,0,0,7.15,7.15h33.69A7.15,7.15,0,0,0-114-112v-22.39a7.15,7.15,0,0,0-7.14-7.15Zm-23.94-3.67a2,2,0,0,1,2-2h10.2a2,2,0,0,1,2,2v3.67H-145.1ZM-159.19-112v-22.39a4.34,4.34,0,0,1,2.93-4.1v30.59a4.34,4.34,0,0,1-2.93-4.1Zm5.74,4.34v-31.07h30.88v31.07Zm36.62-4.34a4.34,4.34,0,0,1-2.93,4.1v-30.59a4.34,4.34,0,0,1,2.93,4.1Zm0,0" transform="translate(162 150)"/><path class="cls-1" d="M-129.54-127.42h-4.24v-4.24a1.41,1.41,0,0,0-1.41-1.4h-5.64a1.41,1.41,0,0,0-1.41,1.4v4.24h-4.24a1.4,1.4,0,0,0-1.4,1.41v5.65a1.4,1.4,0,0,0,1.4,1.4h4.24v4.24a1.41,1.41,0,0,0,1.41,1.41h5.64a1.41,1.41,0,0,0,1.41-1.41V-119h4.24a1.41,1.41,0,0,0,1.41-1.4V-126a1.41,1.41,0,0,0-1.41-1.41Zm-1.41,5.65h-4.24a1.41,1.41,0,0,0-1.4,1.41v4.24h-2.84v-4.24a1.41,1.41,0,0,0-1.4-1.41h-4.24v-2.83h4.24a1.41,1.41,0,0,0,1.4-1.41v-4.24h2.84V-126a1.41,1.41,0,0,0,1.4,1.41h4.24Zm0,0" transform="translate(162 150)"/></svg>