<svg id="Layer_1" data-name="Layer 1" xmlns="http://www.w3.org/2000/svg" viewBox="0 0 54.59 68.69"><defs><style>.cls-1{fill:#2661e4;}</style></defs><path class="cls-1" d="M70,48.67a43,43,0,0,0-7.55-.78A20.44,20.44,0,0,0,52.21,50.3a15.62,15.62,0,0,0-5,4.48V41.49a14.86,14.86,0,0,0,4.86.85c8.25,0,13.09-7.43,15.15-10.6q.21-.34.39-.6l1.27-1.89-2.25-.37-.7-.11a35,35,0,0,0-6.34-.66c-5.4,0-9.59,1.8-12.38,5.26V22.11a11,11,0,0,0,3.06.45c6.13,0,9.67-5.45,11.19-7.78l.27-.42L63,12.47l-2.25-.36L60.3,12a26.32,26.32,0,0,0-4.61-.47c-4.5,0-7.87,1.68-9.91,4.92-2-3.24-5.4-4.92-9.9-4.92a26.32,26.32,0,0,0-4.61.47l-.49.09-2.25.36,1.27,1.89.27.42c1.51,2.33,5.06,7.78,11.19,7.78h0a11,11,0,0,0,3.06-.45V33.37c-2.79-3.46-7-5.26-12.38-5.26a36.12,36.12,0,0,0-6.34.65l-.7.12-2.25.37,1.27,1.89.39.59c2.06,3.18,6.9,10.61,15.15,10.61h0a14.86,14.86,0,0,0,4.86-.85V54.78a15.72,15.72,0,0,0-5-4.48,20.44,20.44,0,0,0-10.22-2.41,43.1,43.1,0,0,0-7.56.78l-.84.15-2.25.36,1.27,1.89.47.72c2.45,3.77,8.2,12.61,18,12.61h0a17.87,17.87,0,0,0,6.14-1.14v17h2.93v-17a17.87,17.87,0,0,0,6.14,1.14c9.75,0,15.5-8.83,18-12.61l.47-.72,1.27-1.89-2.25-.36L70,48.67ZM59.63,31A28.73,28.73,0,0,1,64,31.4c-2.12,3.1-6.07,8-11.87,8a12.38,12.38,0,0,1-4.49-.9c2-5,5.94-7.49,12-7.49ZM55.69,14.47a19.24,19.24,0,0,1,2.38.16c-1.54,2.14-4.14,5-7.76,5a8.34,8.34,0,0,1-2.66-.47c1.41-3.16,4.06-4.7,8-4.7ZM41.26,19.64h0c-3.62,0-6.22-2.87-7.76-5a19.24,19.24,0,0,1,2.38-.16c4,0,6.63,1.54,8,4.7a8.34,8.34,0,0,1-2.66.47Zm-1.8,19.78h0c-5.8,0-9.75-4.92-11.87-8A28.61,28.61,0,0,1,31.94,31c6.07,0,10,2.45,12,7.49a12.38,12.38,0,0,1-4.49.9ZM38.18,61.48h0c-7.36,0-12.26-6.41-14.76-10.15a35.18,35.18,0,0,1,5.72-.52,17.61,17.61,0,0,1,8.77,2A13.87,13.87,0,0,1,44,60.27a15.45,15.45,0,0,1-5.78,1.21Zm15.21,0a15.45,15.45,0,0,1-5.78-1.21,13.87,13.87,0,0,1,6-7.43,17.5,17.5,0,0,1,8.77-2,35.18,35.18,0,0,1,5.72.52c-2.5,3.74-7.4,10.15-14.76,10.15Zm0,0" transform="translate(-18.49 -11.55)"/></svg>