<svg id="Layer_1" data-name="Layer 1" xmlns="http://www.w3.org/2000/svg" viewBox="0 0 512 514"><defs><style>.cls-1{fill:#51d65e;}</style></defs><path class="cls-1" d="M396.67-68H3.33A59.39,59.39,0,0,0-56-8.68V308A59.39,59.39,0,0,0,3.33,367.32H113.05l72.81,72.82a20,20,0,0,0,28.28,0L287,367.32H396.67A59.39,59.39,0,0,0,456,308V-8.68A59.39,59.39,0,0,0,396.67-68ZM416,308a19.35,19.35,0,0,1-19.33,19.32h-118a20,20,0,0,0-14.15,5.86L200,397.71l-64.52-64.53a20,20,0,0,0-14.14-5.85H3.33A19.36,19.36,0,0,1-16,308V-8.68A19.35,19.35,0,0,1,3.33-28H396.67A19.35,19.35,0,0,1,416-8.68ZM278.91,98a78.51,78.51,0,0,1-41.35,73.22A32.73,32.73,0,0,0,220,199.74V200a20,20,0,0,1-40,0c0-.1-1.85-42.15,38.52-64A39,39,0,1,0,161,101.67a20,20,0,1,1-40,0A79,79,0,0,1,278.91,98ZM220,258.67" transform="translate(56 68.01)"/><circle class="cls-1" cx="256.13" cy="325.28" r="21.05"/></svg>