<svg id="Layer_1" data-name="Layer 1" xmlns="http://www.w3.org/2000/svg" viewBox="0 0 83.13 77.45"><defs><style>.cls-1{fill:#51d65e;}</style></defs><path class="cls-1" d="M77.42,22H62.64v-4.1a6.82,6.82,0,0,0-6.81-6.82H29.88a6.83,6.83,0,0,0-6.82,6.82V22H8.29a7,7,0,0,0-7,7V81.57a7,7,0,0,0,7,7H77.42a7,7,0,0,0,7-7V29a7,7,0,0,0-7-7Zm-50.94-4.1a3.41,3.41,0,0,1,3.4-3.41h26a3.41,3.41,0,0,1,3.4,3.41V22H26.48ZM81,81.57a3.59,3.59,0,0,1-3.59,3.59H8.29A3.59,3.59,0,0,1,4.7,81.57V29a3.59,3.59,0,0,1,3.59-3.59H77.42A3.59,3.59,0,0,1,81,29Zm0,0" transform="translate(-1.29 -11.12)"/><path class="cls-1" d="M51.72,46.43v-7A1.71,1.71,0,0,0,50,37.73H35.69A1.72,1.72,0,0,0,34,39.44v7H27a1.72,1.72,0,0,0-1.71,1.71V62.47A1.72,1.72,0,0,0,27,64.18h7v7a1.72,1.72,0,0,0,1.71,1.71H50a1.71,1.71,0,0,0,1.7-1.71v-7h7a1.71,1.71,0,0,0,1.7-1.71V48.14a1.71,1.71,0,0,0-1.7-1.71ZM57,60.76H50a1.72,1.72,0,0,0-1.71,1.71v7H37.39v-7a1.71,1.71,0,0,0-1.7-1.71h-7V49.85h7a1.71,1.71,0,0,0,1.7-1.71v-7H48.31v7A1.72,1.72,0,0,0,50,49.85h7Zm0,0" transform="translate(-1.29 -11.12)"/></svg>