<svg id="Capa_1" data-name="Capa 1" xmlns="http://www.w3.org/2000/svg" viewBox="0 0 48.57 45"><defs><style>.cls-1{fill:#51d65e;}</style></defs><path class="cls-1" d="M4.82,46.12l4.1,4.1h0a4.4,4.4,0,0,0,2.84,1.26A4.3,4.3,0,0,0,13,54.33h0a4.28,4.28,0,0,0,2.85,1.26,4.28,4.28,0,0,0,1.26,2.85A4.32,4.32,0,0,0,20,59.7a4.26,4.26,0,0,0,1.26,2.84h0a4.33,4.33,0,0,0,6.12,0l4.1-4.1a4.28,4.28,0,0,0,1.26-2.85,4.32,4.32,0,0,0,4.11-4.1A4.34,4.34,0,0,0,41,47.38a4.32,4.32,0,0,0,2.84-1.26A15.91,15.91,0,0,0,24.3,21.18,16.3,16.3,0,0,0,4.53,23.39C-1.74,29.65-1.37,39.93,4.82,46.12Zm6.12,0,4.36-4.36a1.48,1.48,0,1,1,2.1,2.09L13,48.21h0a1.47,1.47,0,0,1-2.09,0h0A1.47,1.47,0,0,1,10.94,46.12Zm4.11,4.11h0l4.1-4.11a1.48,1.48,0,0,1,2.1,2.09l-4.11,4.11a1.47,1.47,0,0,1-2.09,0h0A1.47,1.47,0,0,1,15.05,50.23Zm4.1,4.1,4.11-4.1a1.48,1.48,0,0,1,2.09,2.09l-4.1,4.11a1.48,1.48,0,0,1-2.1-2.1Zm10.31,2.1-4.11,4.1a1.47,1.47,0,0,1-2.09,0h0a1.47,1.47,0,0,1,0-2.09l4.11-4.11a1.48,1.48,0,1,1,2.09,2.1ZM42,25.4A13.21,13.21,0,0,1,44.3,40.61a4.85,4.85,0,0,0-.51-.61L30.65,26.86l-11.12,7.4a1.77,1.77,0,0,1-2.23-2.72l6-5.95A13.34,13.34,0,0,1,42,25.4Zm-35.45,0A13.43,13.43,0,0,1,21.8,23.05l-.55.52-6,6a4.61,4.61,0,0,0,5.82,7.1l9.17-6.11L41.78,42a1.48,1.48,0,0,1,0,2.1,1.5,1.5,0,0,1-2.1,0l-8.21-8.22-2,2,8.21,8.21a1.48,1.48,0,0,1-2.09,2.09L27.37,40l-2,2,8.22,8.22a1.48,1.48,0,0,1-2.1,2.09h0a4.25,4.25,0,0,0-2.84-1.26A4.32,4.32,0,0,0,24.52,47a4.3,4.3,0,0,0-1.26-2.84,4.24,4.24,0,0,0-2.59-1.24,4.32,4.32,0,0,0-7.38-3.13L8.93,44.11a4,4,0,0,0-.86,1.23L6.83,44.11h0C1.72,39,1.41,30.52,6.54,25.4Z" transform="translate(0 -18.81)"/></svg>