<svg id="Layer_1" data-name="Layer 1" xmlns="http://www.w3.org/2000/svg" viewBox="0 0 54.94 54.94"><defs><style>.cls-1{fill:#51d65e;}</style></defs><path class="cls-1" d="M57.32,35.74H54.74a12.81,12.81,0,0,0-11.21,6.58,12.82,12.82,0,0,0-11.21-6.58H29.74a1.61,1.61,0,0,0-1.61,1.61v2.58A12.82,12.82,0,0,0,40.94,52.75h1V59a1.61,1.61,0,0,0,3.22,0V52.75h1A12.81,12.81,0,0,0,58.93,39.93V37.35a1.61,1.61,0,0,0-1.61-1.61ZM41.92,49.53h-1a9.6,9.6,0,0,1-9.6-9.6V39h1a9.6,9.6,0,0,1,9.6,9.6Zm13.79-9.6a9.6,9.6,0,0,1-9.6,9.6h-1v-1a9.6,9.6,0,0,1,9.6-9.6h1v1Zm0,0" transform="translate(-16.06 -20.22)"/><path class="cls-1" d="M55.6,20.22c-4.18,0-9.45,2-12.07,6.24-2.62-4.24-7.9-6.24-12.07-6.24-7.22,0-15.4,5.19-15.4,17.13,0,19.71,22.46,35.21,26.67,37.6a1.62,1.62,0,0,0,.8.21,1.65,1.65,0,0,0,.8-.21C48.41,72.62,71,57.16,71,37.35c0-11.64-7.89-17.13-15.4-17.13ZM43.53,71.65c-4.33-2.83-24.25-16.76-24.25-34.3,0-11.24,8-13.91,12.18-13.91s10.46,2.77,10.46,8.73a1.61,1.61,0,0,0,3.22,0c0-6,6.24-8.73,10.46-8.73s12.18,2.67,12.18,13.91c0,17.54-19.92,31.47-24.25,34.3Zm0,0" transform="translate(-16.06 -20.22)"/></svg>