<?xml version="1.0" encoding="utf-8"?>
<!-- Generator: Adobe Illustrator 24.3.0, SVG Export Plug-In . SVG Version: 6.00 Build 0)  -->
<svg version="1.1" id="Layer_1" xmlns="http://www.w3.org/2000/svg" xmlns:xlink="http://www.w3.org/1999/xlink" x="0px" y="0px"
	 viewBox="0 0 536 147" style="enable-background:new 0 0 536 147;" xml:space="preserve">
<style type="text/css">
	.st0{fill:#8EFF6A;}
	.st1{fill:#3098BE;}
	.st2{fill:#0064E9;}
	.st3{fill:url(#SVGID_1_);}
	.st4{fill:url(#SVGID_2_);}
</style>
<g>
	<circle class="st0" cx="34.36" cy="12.17" r="12.17"/>
	<circle class="st1" cx="90.87" cy="12.17" r="12.17"/>
	<circle class="st2" cx="148.01" cy="12.17" r="12.17"/>
	<linearGradient id="SVGID_1_" gradientUnits="userSpaceOnUse" x1="93.3417" y1="90.2584" x2="181.8152" y2="90.2584">
		<stop  offset="0.2013" style="stop-color:#1A80D2"/>
		<stop  offset="0.2483" style="stop-color:#0E73DD"/>
		<stop  offset="0.3147" style="stop-color:#0368E6"/>
		<stop  offset="0.3856" style="stop-color:#0064E9"/>
	</linearGradient>
	<path class="st3" d="M171.38,43.76c-6.74-6.74-15.7-10.45-25.22-10.45c-0.41,0-0.83,0.02-1.24,0.03
		c-9.03,0.31-17.48,3.95-23.91,10.35c0.07,0.09,0.15,0.16,0.22,0.25c4.56,5.5,7.48,12.05,8.54,19.08l5.21-5.21
		c2.69-2.69,6.18-4.28,9.93-4.57c0.41-0.03,0.82-0.06,1.24-0.06c4.22,0,8.19,1.64,11.17,4.63c2.98,2.98,4.62,6.95,4.62,11.17
		c0,4.23-1.64,8.2-4.62,11.17l-12.41,12.41l-26.54,26.54l-10.99-10.99l-14.05,14.05l25.04,25.04l26.54-26.54l26.46-26.46
		C185.29,80.3,185.29,57.67,171.38,43.76z"/>
	<linearGradient id="SVGID_2_" gradientUnits="userSpaceOnUse" x1="-0.2415" y1="90.2584" x2="126.6118" y2="90.2584">
		<stop  offset="0.0509" style="stop-color:#8EFF6A"/>
		<stop  offset="0.4388" style="stop-color:#58C49A"/>
		<stop  offset="0.7549" style="stop-color:#3098BE"/>
		<stop  offset="0.8064" style="stop-color:#278EC6"/>
		<stop  offset="0.911" style="stop-color:#1A80D2"/>
		<stop  offset="1" style="stop-color:#167BD6"/>
	</linearGradient>
	<path class="st4" d="M116.19,94.21c7.64-7.64,11.07-17.91,10.32-27.92v0c-0.54-7.17-3.22-14.2-8.06-20.04
		c-0.71-0.86-1.46-1.69-2.26-2.49c-6.74-6.74-15.69-10.45-25.22-10.45c-0.06,0-0.12,0-0.18,0c-0.06,0-0.12,0-0.18,0
		c-9.53,0-18.49,3.71-25.22,10.45c-0.8,0.8-1.55,1.63-2.26,2.49c-4.84,5.84-7.52,12.87-8.06,20.04l8.13,8.13l0,0l-8.13-8.13
		C54.31,76.3,57.74,86.57,65.38,94.2l8.8,8.8l14.05-14.05l-8.8-8.8c-5.5-5.5-6.07-14.06-1.76-20.22l0,0l2.13-2.13
		c2.94-2.94,6.84-4.57,10.99-4.62c4.15,0.05,8.05,1.68,10.99,4.62l2.14,2.14l0,0c1.84,2.63,2.84,5.75,2.84,9.03
		c0,4.23-1.64,8.2-4.62,11.17L90.79,91.51l-14.05,14.05l-13.55,13.55L36.47,92.38L24.24,80.16c-6.16-6.16-6.16-16.19,0-22.35
		c2.99-2.98,6.95-4.63,11.18-4.63c0.35,0,0.7,0.03,1.06,0.05c3.82,0.25,7.38,1.84,10.12,4.58l5.21,5.21
		c1.06-7.03,3.99-13.58,8.54-19.08c0.07-0.09,0.15-0.17,0.22-0.25c-6.48-6.44-15-10.09-24.09-10.35c-0.35-0.01-0.7-0.03-1.06-0.03
		c-9.53,0-18.49,3.71-25.22,10.45c-13.91,13.91-13.91,36.54,0,50.44l26.28,26.28l26.72,26.72l27.6-27.6l14.05-14.05L116.19,94.21z"
		/>
	<g>
		<path class="st2" d="M212.11,87.82V33.15h17.43c3.36,0,6.25,0.33,8.68,0.99c2.43,0.66,4.43,1.6,5.99,2.82
			c1.56,1.22,2.72,2.72,3.47,4.48c0.75,1.77,1.13,3.76,1.13,5.97c0,1.35-0.21,2.64-0.63,3.89c-0.42,1.25-1.06,2.4-1.91,3.47
			c-0.85,1.07-1.92,2.02-3.21,2.86c-1.28,0.84-2.79,1.53-4.52,2.06c3.99,0.79,7.01,2.23,9.04,4.31c2.03,2.08,3.05,4.83,3.05,8.24
			c0,2.31-0.43,4.43-1.28,6.33c-0.85,1.91-2.1,3.55-3.74,4.92c-1.64,1.38-3.65,2.44-6.03,3.19c-2.38,0.75-5.09,1.13-8.15,1.13
			H212.11z M219.51,57.64h9.77c2.09,0,3.89-0.23,5.42-0.69c1.53-0.46,2.79-1.09,3.8-1.91c1-0.81,1.75-1.8,2.23-2.96
			c0.48-1.16,0.72-2.42,0.72-3.8c0-3.21-0.97-5.56-2.9-7.06c-1.93-1.5-4.93-2.25-9-2.25h-10.03V57.64z M219.51,62.91v19.04h11.83
			c2.11,0,3.92-0.24,5.44-0.72c1.51-0.48,2.76-1.16,3.74-2.04c0.98-0.88,1.7-1.92,2.16-3.13c0.46-1.21,0.69-2.54,0.69-3.99
			c0-2.82-1-5.05-3-6.69c-2-1.64-5.02-2.46-9.06-2.46H219.51z"/>
		<path class="st2" d="M258.88,87.82V49.17h3.89c0.74,0,1.25,0.14,1.53,0.42c0.28,0.28,0.47,0.76,0.57,1.45l0.46,6.03
			c1.32-2.7,2.96-4.8,4.9-6.31c1.95-1.51,4.23-2.27,6.85-2.27c1.07,0,2.03,0.12,2.9,0.36c0.86,0.24,1.67,0.58,2.4,1.01l-0.88,5.07
			c-0.18,0.64-0.57,0.95-1.18,0.95c-0.36,0-0.9-0.12-1.64-0.36c-0.74-0.24-1.77-0.36-3.09-0.36c-2.37,0-4.34,0.69-5.93,2.06
			c-1.59,1.37-2.92,3.37-3.99,5.99v24.61H258.88z"/>
		<path class="st2" d="M315.04,87.82h-3.01c-0.66,0-1.2-0.1-1.6-0.3c-0.41-0.2-0.67-0.64-0.8-1.3l-0.76-3.59
			c-1.02,0.92-2.01,1.74-2.98,2.46c-0.97,0.72-1.98,1.34-3.05,1.83c-1.07,0.5-2.21,0.87-3.41,1.13c-1.21,0.25-2.55,0.38-4.03,0.38
			c-1.5,0-2.91-0.21-4.22-0.63c-1.31-0.42-2.45-1.05-3.41-1.9c-0.97-0.84-1.74-1.91-2.31-3.19c-0.57-1.29-0.86-2.81-0.86-4.57
			c0-1.53,0.42-3.01,1.26-4.42c0.84-1.42,2.19-2.67,4.06-3.77c1.87-1.1,4.32-2,7.34-2.7s6.73-1.05,11.1-1.05v-3.03
			c0-3.02-0.64-5.3-1.93-6.85c-1.28-1.55-3.19-2.32-5.7-2.32c-1.65,0-3.05,0.21-4.18,0.63c-1.13,0.42-2.11,0.89-2.94,1.41
			c-0.83,0.52-1.54,0.99-2.14,1.41c-0.6,0.42-1.19,0.63-1.77,0.63c-0.46,0-0.86-0.12-1.2-0.36c-0.34-0.24-0.62-0.54-0.82-0.9
			l-1.22-2.18c2.14-2.06,4.44-3.6,6.91-4.62c2.47-1.02,5.2-1.53,8.2-1.53c2.16,0,4.08,0.36,5.76,1.07c1.68,0.71,3.09,1.7,4.23,2.97
			c1.14,1.27,2.01,2.81,2.59,4.62c0.59,1.81,0.88,3.79,0.88,5.95V87.82z M297.42,83.66c1.19,0,2.29-0.12,3.28-0.36
			c0.99-0.24,1.93-0.58,2.8-1.03c0.88-0.44,1.72-0.98,2.52-1.62c0.8-0.63,1.58-1.36,2.35-2.18V70.5c-3.13,0-5.79,0.2-7.97,0.59
			c-2.19,0.4-3.97,0.92-5.34,1.56c-1.37,0.64-2.37,1.39-3,2.26c-0.62,0.87-0.94,1.84-0.94,2.91c0,1.02,0.17,1.91,0.5,2.65
			c0.33,0.74,0.78,1.35,1.34,1.82s1.22,0.82,1.98,1.03C295.7,83.55,296.53,83.66,297.42,83.66z"/>
		<path class="st2" d="M323.82,87.82V49.17h4.04c0.97,0,1.58,0.47,1.83,1.41l0.53,4.2c1.68-1.86,3.55-3.36,5.63-4.5
			c2.07-1.14,4.47-1.72,7.19-1.72c2.11,0,3.97,0.35,5.59,1.05c1.61,0.7,2.96,1.69,4.04,2.97c1.08,1.28,1.9,2.83,2.46,4.64
			c0.56,1.81,0.84,3.8,0.84,5.99v24.61h-6.79V63.21c0-2.92-0.67-5.19-2-6.81c-1.34-1.61-3.38-2.42-6.12-2.42
			c-2.01,0-3.88,0.48-5.63,1.45c-1.74,0.97-3.35,2.28-4.83,3.93v28.46H323.82z"/>
		<path class="st2" d="M391.92,87.82c-0.97,0-1.58-0.47-1.83-1.41l-0.61-4.69c-1.65,2.01-3.54,3.62-5.67,4.83
			c-2.12,1.21-4.56,1.81-7.31,1.81c-2.21,0-4.22-0.43-6.03-1.28c-1.81-0.85-3.34-2.1-4.62-3.76c-1.27-1.65-2.25-3.71-2.94-6.18
			c-0.69-2.47-1.03-5.3-1.03-8.51c0-2.85,0.38-5.5,1.14-7.95c0.76-2.45,1.86-4.59,3.3-6.39c1.44-1.81,3.19-3.22,5.25-4.26
			c2.06-1.03,4.4-1.54,7.02-1.54c2.37,0,4.39,0.4,6.07,1.2c1.68,0.8,3.18,1.93,4.5,3.38V31.62h6.79v56.2H391.92z M378.76,82.86
			c2.21,0,4.15-0.51,5.82-1.53c1.67-1.02,3.2-2.45,4.6-4.31V58.33c-1.25-1.68-2.61-2.85-4.1-3.53c-1.49-0.67-3.13-1.01-4.94-1.01
			c-3.61,0-6.38,1.28-8.32,3.85c-1.93,2.57-2.9,6.23-2.9,10.99c0,2.52,0.22,4.67,0.65,6.47c0.43,1.79,1.07,3.27,1.91,4.42
			c0.84,1.16,1.87,2,3.09,2.54C375.78,82.59,377.18,82.86,378.76,82.86z"/>
		<path class="st2" d="M405.84,87.82V49.17h4.04c0.97,0,1.58,0.47,1.83,1.41l0.5,3.97c1.43-1.76,3.02-3.19,4.79-4.31
			c1.77-1.12,3.82-1.68,6.16-1.68c2.62,0,4.74,0.73,6.35,2.18c1.61,1.45,2.78,3.41,3.49,5.88c0.53-1.4,1.24-2.61,2.12-3.62
			c0.88-1.02,1.86-1.86,2.96-2.52c1.09-0.66,2.26-1.14,3.49-1.45c1.23-0.3,2.49-0.46,3.76-0.46c2.03,0,3.85,0.32,5.44,0.97
			c1.59,0.65,2.94,1.6,4.04,2.84c1.11,1.25,1.95,2.78,2.54,4.6c0.59,1.82,0.88,3.9,0.88,6.24v24.61h-6.79V63.21
			c0-3.03-0.66-5.32-1.98-6.89c-1.32-1.56-3.24-2.35-5.76-2.35c-1.12,0-2.18,0.2-3.19,0.59c-1.01,0.39-1.89,0.97-2.65,1.74
			c-0.76,0.76-1.37,1.72-1.81,2.88c-0.45,1.16-0.67,2.5-0.67,4.02v24.61h-6.79V63.21c0-3.1-0.62-5.42-1.87-6.94
			c-1.25-1.53-3.06-2.29-5.46-2.29c-1.68,0-3.24,0.45-4.67,1.36c-1.44,0.9-2.75,2.13-3.95,3.68v28.8H405.84z"/>
		<path class="st2" d="M495.35,87.82h-3.01c-0.66,0-1.2-0.1-1.6-0.3c-0.41-0.2-0.67-0.64-0.8-1.3l-0.76-3.59
			c-1.02,0.92-2.01,1.74-2.98,2.46c-0.97,0.72-1.98,1.34-3.05,1.83c-1.07,0.5-2.21,0.87-3.41,1.13c-1.21,0.25-2.55,0.38-4.03,0.38
			c-1.5,0-2.91-0.21-4.22-0.63c-1.31-0.42-2.45-1.05-3.41-1.9c-0.97-0.84-1.74-1.91-2.31-3.19c-0.57-1.29-0.86-2.81-0.86-4.57
			c0-1.53,0.42-3.01,1.26-4.42c0.84-1.42,2.19-2.67,4.06-3.77c1.87-1.1,4.32-2,7.34-2.7c3.03-0.7,6.73-1.05,11.1-1.05v-3.03
			c0-3.02-0.64-5.3-1.93-6.85c-1.28-1.55-3.19-2.32-5.7-2.32c-1.65,0-3.05,0.21-4.18,0.63c-1.13,0.42-2.11,0.89-2.94,1.41
			c-0.83,0.52-1.54,0.99-2.14,1.41c-0.6,0.42-1.19,0.63-1.77,0.63c-0.46,0-0.86-0.12-1.2-0.36c-0.34-0.24-0.62-0.54-0.82-0.9
			l-1.22-2.18c2.14-2.06,4.44-3.6,6.91-4.62c2.47-1.02,5.2-1.53,8.2-1.53c2.16,0,4.08,0.36,5.76,1.07c1.68,0.71,3.09,1.7,4.23,2.97
			c1.14,1.27,2.01,2.81,2.59,4.62c0.59,1.81,0.88,3.79,0.88,5.95V87.82z M477.72,83.66c1.19,0,2.29-0.12,3.28-0.36
			c0.99-0.24,1.93-0.58,2.8-1.03c0.88-0.44,1.72-0.98,2.52-1.62c0.8-0.63,1.58-1.36,2.35-2.18V70.5c-3.13,0-5.79,0.2-7.97,0.59
			c-2.19,0.4-3.97,0.92-5.34,1.56c-1.37,0.64-2.37,1.39-3,2.26c-0.62,0.87-0.94,1.84-0.94,2.91c0,1.02,0.17,1.91,0.5,2.65
			c0.33,0.74,0.78,1.35,1.34,1.82s1.22,0.82,1.98,1.03C476.01,83.55,476.83,83.66,477.72,83.66z"/>
		<path class="st2" d="M504.12,87.82V49.17h4.04c0.97,0,1.58,0.47,1.83,1.41l0.53,4.2c1.68-1.86,3.55-3.36,5.63-4.5
			c2.07-1.14,4.47-1.72,7.19-1.72c2.11,0,3.97,0.35,5.59,1.05c1.61,0.7,2.96,1.69,4.04,2.97c1.08,1.28,1.9,2.83,2.46,4.64
			c0.56,1.81,0.84,3.8,0.84,5.99v24.61h-6.79V63.21c0-2.92-0.67-5.19-2-6.81c-1.34-1.61-3.38-2.42-6.12-2.42
			c-2.01,0-3.88,0.48-5.63,1.45s-3.35,2.28-4.83,3.93v28.46H504.12z"/>
	</g>
	<g>
		<path class="st2" d="M245.43,138.99h-13.77v-1.66c0.37-0.03,0.92-0.08,1.62-0.14c0.71-0.06,1.2-0.15,1.46-0.28
			c0.47-0.19,0.81-0.47,1.03-0.85c0.22-0.38,0.33-0.88,0.33-1.48v-11.81h-15.59v11.55c0,0.55,0.09,1.01,0.27,1.38
			c0.18,0.37,0.53,0.7,1.06,0.98c0.26,0.14,0.74,0.28,1.41,0.42s1.21,0.22,1.6,0.23v1.66h-13.77v-1.66
			c0.37-0.03,0.92-0.08,1.62-0.14c0.71-0.06,1.2-0.15,1.46-0.28c0.47-0.19,0.81-0.47,1.03-0.85c0.22-0.38,0.33-0.88,0.33-1.48
			v-23.94c0-0.5-0.1-0.95-0.3-1.37c-0.2-0.41-0.55-0.74-1.05-0.97c-0.42-0.2-0.93-0.38-1.53-0.54c-0.6-0.15-1.12-0.25-1.55-0.28
			v-1.66h13.77v1.66c-0.44,0.01-0.97,0.08-1.6,0.21s-1.1,0.24-1.41,0.35c-0.53,0.19-0.88,0.5-1.06,0.94
			c-0.18,0.44-0.27,0.91-0.27,1.43v10.29h15.59v-10.05c0-0.5-0.1-0.95-0.3-1.37c-0.2-0.41-0.55-0.74-1.05-0.97
			c-0.42-0.2-0.93-0.38-1.53-0.54c-0.6-0.15-1.12-0.25-1.55-0.28v-1.66h13.77v1.66c-0.44,0.01-0.97,0.08-1.6,0.21
			c-0.63,0.12-1.1,0.24-1.41,0.35c-0.53,0.19-0.88,0.5-1.06,0.94c-0.18,0.44-0.27,0.91-0.27,1.43v23.91c0,0.55,0.09,1.01,0.27,1.38
			c0.18,0.37,0.53,0.7,1.06,0.98c0.27,0.14,0.74,0.28,1.41,0.42s1.21,0.22,1.6,0.23V138.99z"/>
		<path class="st2" d="M277.03,129.22l-0.63,9.77h-27.54v-1.66c0.47-0.03,1.09-0.1,1.87-0.2s1.29-0.21,1.52-0.32
			c0.5-0.23,0.85-0.54,1.04-0.91c0.19-0.37,0.29-0.85,0.29-1.43v-23.85c0-0.51-0.09-0.97-0.26-1.37s-0.53-0.72-1.08-0.97
			c-0.42-0.2-0.98-0.38-1.69-0.54c-0.71-0.15-1.27-0.25-1.69-0.28v-1.66h25.67v8h-1.75c-0.31-1.18-0.99-2.44-2.02-3.78
			c-1.04-1.33-2.02-2.06-2.96-2.19c-0.48-0.06-1.06-0.11-1.73-0.14c-0.67-0.03-1.43-0.05-2.29-0.05h-5.21v13.18h3.74
			c1.2,0,2.08-0.11,2.63-0.34c0.55-0.23,1.04-0.6,1.46-1.13c0.34-0.45,0.63-1.06,0.88-1.81c0.24-0.76,0.4-1.47,0.48-2.14h1.75v13
			h-1.75c-0.06-0.75-0.23-1.54-0.5-2.37c-0.27-0.83-0.56-1.44-0.85-1.81c-0.48-0.61-1.03-1.01-1.65-1.19
			c-0.62-0.19-1.43-0.28-2.44-0.28h-3.74v9.94c0,1,0.07,1.78,0.21,2.36c0.14,0.58,0.41,1.01,0.82,1.31c0.41,0.3,0.96,0.49,1.66,0.57
			c0.7,0.09,1.7,0.13,2.99,0.13c0.51,0,1.19,0,2.03,0c0.84,0,1.55-0.03,2.13-0.09c0.59-0.06,1.2-0.18,1.84-0.34
			c0.63-0.17,1.08-0.39,1.34-0.67c0.72-0.75,1.47-1.88,2.26-3.4c0.79-1.52,1.29-2.64,1.51-3.35H277.03z"/>
		<path class="st2" d="M310.4,138.99h-13.79v-1.66c1.22-0.08,2.22-0.23,3.03-0.47c0.8-0.23,1.2-0.52,1.2-0.87
			c0-0.14-0.02-0.31-0.05-0.51c-0.03-0.2-0.08-0.38-0.14-0.54l-2.75-7.44h-11.64c-0.44,1.09-0.79,2.04-1.06,2.85
			c-0.27,0.81-0.52,1.56-0.74,2.24c-0.2,0.67-0.34,1.21-0.42,1.64c-0.08,0.42-0.12,0.76-0.12,1.03c0,0.62,0.49,1.11,1.47,1.45
			s2.09,0.55,3.32,0.61v1.66h-12.49v-1.66c0.41-0.03,0.91-0.12,1.52-0.27c0.61-0.15,1.11-0.35,1.5-0.6
			c0.62-0.42,1.11-0.86,1.45-1.32c0.34-0.46,0.68-1.1,1.01-1.91c1.67-4.16,3.51-8.84,5.52-14.03c2.01-5.19,3.8-9.81,5.38-13.86h1.87
			l11.06,28.62c0.23,0.61,0.5,1.1,0.79,1.47c0.3,0.37,0.71,0.74,1.24,1.1c0.36,0.22,0.83,0.4,1.4,0.55
			c0.58,0.15,1.06,0.23,1.45,0.25V138.99z M297.05,125.43l-5.03-12.87l-4.95,12.87H297.05z"/>
		<path class="st2" d="M337.26,129.13l-0.7,9.86h-25.93v-1.66c0.37-0.03,0.92-0.09,1.62-0.17c0.71-0.08,1.2-0.18,1.48-0.3
			c0.47-0.2,0.81-0.5,1.02-0.89c0.21-0.39,0.32-0.89,0.32-1.5v-23.75c0-0.53-0.09-1-0.27-1.4c-0.18-0.4-0.53-0.73-1.06-0.98
			c-0.36-0.19-0.86-0.37-1.51-0.55c-0.65-0.18-1.18-0.29-1.6-0.32v-1.66h14v1.66c-0.44,0.01-1,0.09-1.69,0.23
			c-0.69,0.14-1.2,0.26-1.51,0.37c-0.53,0.19-0.89,0.51-1.09,0.96c-0.2,0.45-0.29,0.94-0.29,1.45v22.28c0,1.03,0.05,1.83,0.15,2.4
			c0.1,0.57,0.34,1.01,0.71,1.32c0.36,0.28,0.89,0.46,1.6,0.55c0.71,0.09,1.7,0.13,2.98,0.13c0.58,0,1.18-0.01,1.8-0.05
			c0.62-0.03,1.22-0.09,1.78-0.19c0.54-0.09,1.05-0.22,1.51-0.39c0.46-0.16,0.8-0.37,1.02-0.62c0.64-0.72,1.38-1.8,2.23-3.26
			c0.85-1.46,1.44-2.64,1.76-3.54H337.26z"/>
		<path class="st2" d="M365.54,114.82h-1.61c-0.14-0.56-0.39-1.23-0.76-2c-0.37-0.77-0.78-1.5-1.23-2.19
			c-0.47-0.72-0.98-1.34-1.53-1.88c-0.56-0.54-1.09-0.85-1.61-0.92c-0.48-0.06-1.09-0.11-1.83-0.14s-1.41-0.05-2.04-0.05h-1.36
			v26.53c0,0.51,0.11,0.99,0.33,1.41c0.22,0.43,0.6,0.76,1.15,0.99c0.28,0.11,0.87,0.26,1.76,0.44c0.9,0.19,1.59,0.29,2.09,0.3v1.66
			h-15.66v-1.66c0.44-0.03,1.1-0.1,2-0.19c0.9-0.09,1.52-0.21,1.86-0.35c0.51-0.2,0.89-0.49,1.13-0.88
			c0.24-0.38,0.36-0.89,0.36-1.53v-26.74h-1.36c-0.48,0-1.08,0.01-1.8,0.04c-0.72,0.02-1.4,0.07-2.06,0.15
			c-0.51,0.06-1.05,0.37-1.6,0.92c-0.55,0.55-1.06,1.18-1.53,1.88c-0.47,0.7-0.88,1.45-1.24,2.23c-0.36,0.79-0.61,1.44-0.75,1.95
			h-1.64v-9h28.92V114.82z"/>
		<path class="st2" d="M401.57,138.99H387.8v-1.66c0.37-0.03,0.92-0.08,1.63-0.14c0.71-0.06,1.2-0.15,1.46-0.28
			c0.47-0.19,0.81-0.47,1.03-0.85c0.22-0.38,0.33-0.88,0.33-1.48v-11.81h-15.59v11.55c0,0.55,0.09,1.01,0.27,1.38
			c0.18,0.37,0.53,0.7,1.06,0.98c0.26,0.14,0.74,0.28,1.41,0.42c0.68,0.14,1.21,0.22,1.6,0.23v1.66h-13.77v-1.66
			c0.37-0.03,0.92-0.08,1.62-0.14c0.71-0.06,1.2-0.15,1.46-0.28c0.47-0.19,0.81-0.47,1.03-0.85c0.22-0.38,0.33-0.88,0.33-1.48
			v-23.94c0-0.5-0.1-0.95-0.3-1.37c-0.2-0.41-0.55-0.74-1.05-0.97c-0.42-0.2-0.93-0.38-1.53-0.54c-0.6-0.15-1.12-0.25-1.55-0.28
			v-1.66H381v1.66c-0.44,0.01-0.97,0.08-1.6,0.21s-1.1,0.24-1.41,0.35c-0.53,0.19-0.88,0.5-1.06,0.94
			c-0.18,0.44-0.27,0.91-0.27,1.43v10.29h15.59v-10.05c0-0.5-0.1-0.95-0.3-1.37c-0.2-0.41-0.55-0.74-1.05-0.97
			c-0.42-0.2-0.93-0.38-1.53-0.54c-0.6-0.15-1.12-0.25-1.55-0.28v-1.66h13.77v1.66c-0.44,0.01-0.97,0.08-1.6,0.21
			c-0.63,0.12-1.1,0.24-1.41,0.35c-0.53,0.19-0.88,0.5-1.06,0.94c-0.18,0.44-0.27,0.91-0.27,1.43v23.91c0,0.55,0.09,1.01,0.27,1.38
			c0.18,0.37,0.53,0.7,1.06,0.98c0.27,0.14,0.74,0.28,1.41,0.42c0.68,0.14,1.21,0.22,1.6,0.23V138.99z"/>
		<path class="st2" d="M441.27,114c0,1.73-0.34,3.26-1.02,4.59c-0.68,1.33-1.62,2.44-2.82,3.31c-1.18,0.87-2.49,1.51-3.9,1.92
			c-1.42,0.4-2.92,0.61-4.51,0.61h-3.72v10.05c0,0.55,0.09,1.02,0.27,1.44c0.18,0.41,0.55,0.73,1.11,0.95
			c0.28,0.11,0.78,0.21,1.48,0.3c0.71,0.09,1.36,0.15,1.95,0.17v1.66h-14.24v-1.66c0.37-0.03,0.92-0.09,1.62-0.17
			c0.71-0.08,1.2-0.18,1.48-0.3c0.47-0.2,0.81-0.5,1.02-0.89c0.21-0.39,0.32-0.89,0.32-1.5v-23.94c0-0.55-0.08-1.04-0.23-1.47
			s-0.52-0.76-1.1-0.98c-0.59-0.2-1.18-0.35-1.76-0.43c-0.58-0.09-1.09-0.15-1.51-0.18v-1.66h15.15c3.08,0,5.59,0.74,7.52,2.23
			C440.3,109.54,441.27,111.52,441.27,114z M434.16,119.66c0.53-0.75,0.88-1.52,1.05-2.33c0.17-0.8,0.26-1.52,0.26-2.16
			c0-0.89-0.11-1.79-0.32-2.71c-0.21-0.92-0.57-1.72-1.09-2.41c-0.55-0.73-1.26-1.3-2.15-1.71c-0.89-0.4-2-0.61-3.32-0.61h-3.3
			v14.66h2.38c1.68,0,3.05-0.26,4.1-0.78C432.84,121.09,433.63,120.44,434.16,119.66z"/>
		<path class="st2" d="M470.75,129.13l-0.7,9.86h-25.93v-1.66c0.37-0.03,0.92-0.09,1.62-0.17c0.71-0.08,1.2-0.18,1.48-0.3
			c0.47-0.2,0.81-0.5,1.02-0.89c0.21-0.39,0.32-0.89,0.32-1.5v-23.75c0-0.53-0.09-1-0.27-1.4c-0.18-0.4-0.53-0.73-1.06-0.98
			c-0.36-0.19-0.86-0.37-1.51-0.55c-0.65-0.18-1.18-0.29-1.6-0.32v-1.66h14v1.66c-0.44,0.01-1,0.09-1.69,0.23
			c-0.69,0.14-1.2,0.26-1.51,0.37c-0.53,0.19-0.89,0.51-1.09,0.96c-0.2,0.45-0.29,0.94-0.29,1.45v22.28c0,1.03,0.05,1.83,0.15,2.4
			c0.1,0.57,0.34,1.01,0.71,1.32c0.36,0.28,0.89,0.46,1.6,0.55c0.71,0.09,1.7,0.13,2.98,0.13c0.58,0,1.18-0.01,1.8-0.05
			c0.62-0.03,1.22-0.09,1.78-0.19c0.54-0.09,1.05-0.22,1.51-0.39c0.46-0.16,0.8-0.37,1.02-0.62c0.64-0.72,1.38-1.8,2.23-3.26
			c0.85-1.46,1.44-2.64,1.76-3.54H470.75z"/>
		<path class="st2" d="M502.99,138.99H489.2v-1.66c1.22-0.08,2.22-0.23,3.03-0.47c0.8-0.23,1.2-0.52,1.2-0.87
			c0-0.14-0.02-0.31-0.05-0.51c-0.03-0.2-0.08-0.38-0.14-0.54l-2.75-7.44h-11.64c-0.44,1.09-0.79,2.04-1.06,2.85
			c-0.27,0.81-0.52,1.56-0.74,2.24c-0.2,0.67-0.34,1.21-0.42,1.64c-0.08,0.42-0.12,0.76-0.12,1.03c0,0.62,0.49,1.11,1.47,1.45
			s2.09,0.55,3.32,0.61v1.66h-12.49v-1.66c0.41-0.03,0.91-0.12,1.52-0.27c0.61-0.15,1.11-0.35,1.5-0.6
			c0.62-0.42,1.11-0.86,1.45-1.32c0.34-0.46,0.68-1.1,1.01-1.91c1.67-4.16,3.51-8.84,5.52-14.03c2.01-5.19,3.8-9.81,5.38-13.86h1.87
			l11.06,28.62c0.23,0.61,0.5,1.1,0.79,1.47c0.3,0.37,0.71,0.74,1.24,1.1c0.36,0.22,0.83,0.4,1.4,0.55
			c0.58,0.15,1.06,0.23,1.45,0.25V138.99z M489.64,125.43l-5.03-12.87l-4.95,12.87H489.64z"/>
		<path class="st2" d="M537.26,107.48c-0.44,0.01-1.11,0.14-2.01,0.37c-0.9,0.23-1.55,0.48-1.94,0.73
			c-0.56,0.39-0.94,1.14-1.13,2.24c-0.2,1.11-0.29,2.51-0.29,4.21v24.29h-2.03l-20.1-27.14v17.11c0,1.92,0.12,3.39,0.36,4.42
			c0.24,1.03,0.61,1.76,1.11,2.2c0.36,0.34,1.1,0.66,2.22,0.96c1.12,0.3,1.86,0.45,2.22,0.47v1.66h-13.61v-1.66
			c0.42-0.03,1.13-0.18,2.13-0.46c1-0.27,1.62-0.52,1.87-0.74c0.55-0.44,0.92-1.1,1.12-2c0.2-0.9,0.3-2.43,0.3-4.59v-16.34
			c0-0.72-0.12-1.43-0.37-2.15c-0.25-0.72-0.59-1.27-1.01-1.66c-0.56-0.51-1.32-0.95-2.28-1.32c-0.96-0.37-1.73-0.56-2.33-0.59
			v-1.66h9.48l18.65,25.29v-15.78c0-1.93-0.12-3.42-0.37-4.45c-0.25-1.04-0.61-1.73-1.07-2.07c-0.44-0.3-1.15-0.58-2.14-0.86
			c-0.99-0.28-1.74-0.44-2.26-0.47v-1.66h13.49V107.48z"/>
	</g>
	<g>
		<path class="st2" d="M212.11,87.82V33.15h17.43c3.36,0,6.25,0.33,8.68,0.99c2.43,0.66,4.43,1.6,5.99,2.82
			c1.56,1.22,2.72,2.72,3.47,4.48c0.75,1.77,1.13,3.76,1.13,5.97c0,1.35-0.21,2.64-0.63,3.89c-0.42,1.25-1.06,2.4-1.91,3.47
			c-0.85,1.07-1.92,2.02-3.21,2.86c-1.28,0.84-2.79,1.53-4.52,2.06c3.99,0.79,7.01,2.23,9.04,4.31c2.03,2.08,3.05,4.83,3.05,8.24
			c0,2.31-0.43,4.43-1.28,6.33c-0.85,1.91-2.1,3.55-3.74,4.92c-1.64,1.38-3.65,2.44-6.03,3.19c-2.38,0.75-5.09,1.13-8.15,1.13
			H212.11z M219.51,57.64h9.77c2.09,0,3.89-0.23,5.42-0.69c1.53-0.46,2.79-1.09,3.8-1.91c1-0.81,1.75-1.8,2.23-2.96
			c0.48-1.16,0.72-2.42,0.72-3.8c0-3.21-0.97-5.56-2.9-7.06c-1.93-1.5-4.93-2.25-9-2.25h-10.03V57.64z M219.51,62.91v19.04h11.83
			c2.11,0,3.92-0.24,5.44-0.72c1.51-0.48,2.76-1.16,3.74-2.04c0.98-0.88,1.7-1.92,2.16-3.13c0.46-1.21,0.69-2.54,0.69-3.99
			c0-2.82-1-5.05-3-6.69c-2-1.64-5.02-2.46-9.06-2.46H219.51z"/>
		<path class="st2" d="M258.88,87.82V49.17h3.89c0.74,0,1.25,0.14,1.53,0.42c0.28,0.28,0.47,0.76,0.57,1.45l0.46,6.03
			c1.32-2.7,2.96-4.8,4.9-6.31c1.95-1.51,4.23-2.27,6.85-2.27c1.07,0,2.03,0.12,2.9,0.36c0.86,0.24,1.67,0.58,2.4,1.01l-0.88,5.07
			c-0.18,0.64-0.57,0.95-1.18,0.95c-0.36,0-0.9-0.12-1.64-0.36s-1.77-0.36-3.09-0.36c-2.37,0-4.34,0.69-5.93,2.06
			c-1.59,1.37-2.92,3.37-3.99,5.99v24.61H258.88z"/>
		<path class="st2" d="M315.04,87.82h-3.01c-0.66,0-1.2-0.1-1.6-0.3c-0.41-0.2-0.67-0.64-0.8-1.3l-0.76-3.59
			c-1.02,0.92-2.01,1.74-2.98,2.46c-0.97,0.72-1.98,1.34-3.05,1.83c-1.07,0.5-2.21,0.87-3.41,1.13c-1.21,0.25-2.55,0.38-4.03,0.38
			c-1.5,0-2.91-0.21-4.22-0.63c-1.31-0.42-2.45-1.05-3.41-1.9c-0.97-0.84-1.74-1.91-2.31-3.2c-0.57-1.29-0.86-2.81-0.86-4.57
			c0-1.53,0.42-3.01,1.26-4.42c0.84-1.42,2.19-2.67,4.06-3.77c1.87-1.1,4.32-2,7.34-2.7s6.73-1.05,11.1-1.05v-3.03
			c0-3.02-0.64-5.3-1.93-6.85s-3.19-2.32-5.7-2.32c-1.65,0-3.05,0.21-4.18,0.63c-1.13,0.42-2.11,0.89-2.94,1.41
			c-0.83,0.52-1.54,0.99-2.14,1.41c-0.6,0.42-1.19,0.63-1.77,0.63c-0.46,0-0.86-0.12-1.2-0.36c-0.34-0.24-0.62-0.54-0.82-0.9
			l-1.22-2.18c2.14-2.06,4.44-3.6,6.91-4.62c2.47-1.02,5.2-1.53,8.2-1.53c2.16,0,4.08,0.36,5.76,1.07c1.68,0.71,3.09,1.7,4.23,2.97
			c1.14,1.27,2.01,2.81,2.59,4.62c0.59,1.81,0.88,3.79,0.88,5.95V87.82z M297.42,83.66c1.19,0,2.29-0.12,3.28-0.36
			c0.99-0.24,1.93-0.58,2.8-1.03c0.88-0.44,1.72-0.98,2.52-1.62c0.8-0.63,1.58-1.36,2.35-2.18V70.5c-3.13,0-5.79,0.2-7.97,0.59
			c-2.19,0.4-3.97,0.92-5.34,1.56s-2.37,1.39-3,2.26s-0.94,1.84-0.94,2.92c0,1.02,0.17,1.91,0.5,2.65c0.33,0.74,0.78,1.35,1.34,1.82
			s1.22,0.82,1.98,1.03C295.7,83.55,296.53,83.66,297.42,83.66z"/>
		<path class="st2" d="M323.82,87.82V49.17h4.04c0.97,0,1.58,0.47,1.83,1.41l0.53,4.2c1.68-1.86,3.55-3.36,5.63-4.5
			c2.07-1.14,4.47-1.72,7.19-1.72c2.11,0,3.97,0.35,5.59,1.05c1.61,0.7,2.96,1.69,4.04,2.97c1.08,1.28,1.9,2.83,2.46,4.64
			c0.56,1.81,0.84,3.8,0.84,5.99v24.61h-6.79V63.21c0-2.92-0.67-5.19-2-6.81c-1.34-1.61-3.38-2.42-6.12-2.42
			c-2.01,0-3.88,0.48-5.63,1.45c-1.74,0.97-3.35,2.28-4.83,3.93v28.46H323.82z"/>
		<path class="st2" d="M391.92,87.82c-0.97,0-1.58-0.47-1.83-1.41l-0.61-4.69c-1.65,2.01-3.54,3.62-5.67,4.83
			c-2.12,1.21-4.56,1.81-7.31,1.81c-2.21,0-4.22-0.43-6.03-1.28c-1.81-0.85-3.34-2.1-4.62-3.76c-1.27-1.65-2.25-3.71-2.94-6.18
			c-0.69-2.47-1.03-5.3-1.03-8.51c0-2.85,0.38-5.5,1.14-7.95c0.76-2.45,1.86-4.59,3.3-6.39c1.44-1.81,3.19-3.22,5.25-4.26
			c2.06-1.03,4.4-1.54,7.02-1.54c2.37,0,4.39,0.4,6.07,1.2c1.68,0.8,3.18,1.93,4.5,3.38V31.62h6.79v56.2H391.92z M378.76,82.86
			c2.21,0,4.15-0.51,5.82-1.53c1.67-1.02,3.2-2.45,4.6-4.31V58.33c-1.25-1.68-2.61-2.85-4.1-3.53c-1.49-0.67-3.13-1.01-4.94-1.01
			c-3.61,0-6.38,1.28-8.32,3.85c-1.93,2.57-2.9,6.23-2.9,10.99c0,2.52,0.22,4.67,0.65,6.47c0.43,1.79,1.07,3.27,1.91,4.42
			c0.84,1.16,1.87,2,3.09,2.54C375.78,82.59,377.18,82.86,378.76,82.86z"/>
		<path class="st2" d="M405.84,87.82V49.17h4.04c0.97,0,1.58,0.47,1.83,1.41l0.5,3.97c1.43-1.76,3.02-3.19,4.79-4.31
			c1.77-1.12,3.82-1.68,6.16-1.68c2.62,0,4.74,0.73,6.35,2.18c1.61,1.45,2.78,3.41,3.49,5.88c0.53-1.4,1.24-2.61,2.12-3.62
			c0.88-1.02,1.86-1.86,2.96-2.52c1.09-0.66,2.26-1.14,3.49-1.45c1.23-0.3,2.49-0.46,3.76-0.46c2.03,0,3.85,0.32,5.44,0.97
			c1.59,0.65,2.94,1.6,4.04,2.84c1.11,1.25,1.95,2.78,2.54,4.6s0.88,3.9,0.88,6.24v24.61h-6.79V63.21c0-3.03-0.66-5.32-1.98-6.89
			c-1.32-1.56-3.24-2.35-5.76-2.35c-1.12,0-2.18,0.2-3.19,0.59c-1.01,0.39-1.89,0.97-2.65,1.74c-0.76,0.76-1.37,1.72-1.81,2.88
			c-0.45,1.16-0.67,2.5-0.67,4.02v24.61h-6.79V63.21c0-3.1-0.62-5.42-1.87-6.94c-1.25-1.53-3.06-2.29-5.46-2.29
			c-1.68,0-3.24,0.45-4.67,1.36c-1.44,0.9-2.75,2.13-3.95,3.68v28.8H405.84z"/>
		<path class="st2" d="M495.35,87.82h-3.01c-0.66,0-1.2-0.1-1.6-0.3c-0.41-0.2-0.67-0.64-0.8-1.3l-0.76-3.59
			c-1.02,0.92-2.01,1.74-2.98,2.46c-0.97,0.72-1.98,1.34-3.05,1.83c-1.07,0.5-2.21,0.87-3.41,1.13c-1.21,0.25-2.55,0.38-4.03,0.38
			c-1.5,0-2.91-0.21-4.22-0.63c-1.31-0.42-2.45-1.05-3.41-1.9c-0.97-0.84-1.74-1.91-2.31-3.2c-0.57-1.29-0.86-2.81-0.86-4.57
			c0-1.53,0.42-3.01,1.26-4.42c0.84-1.42,2.19-2.67,4.06-3.77c1.87-1.1,4.32-2,7.34-2.7c3.03-0.7,6.73-1.05,11.1-1.05v-3.03
			c0-3.02-0.64-5.3-1.93-6.85c-1.28-1.55-3.19-2.32-5.7-2.32c-1.65,0-3.05,0.21-4.18,0.63c-1.13,0.42-2.11,0.89-2.94,1.41
			c-0.83,0.52-1.54,0.99-2.14,1.41c-0.6,0.42-1.19,0.63-1.77,0.63c-0.46,0-0.86-0.12-1.2-0.36c-0.34-0.24-0.62-0.54-0.82-0.9
			l-1.22-2.18c2.14-2.06,4.44-3.6,6.91-4.62c2.47-1.02,5.2-1.53,8.2-1.53c2.16,0,4.08,0.36,5.76,1.07c1.68,0.71,3.09,1.7,4.23,2.97
			c1.14,1.27,2.01,2.81,2.59,4.62c0.59,1.81,0.88,3.79,0.88,5.95V87.82z M477.72,83.66c1.19,0,2.29-0.12,3.28-0.36
			c0.99-0.24,1.93-0.58,2.8-1.03c0.88-0.44,1.72-0.98,2.52-1.62c0.8-0.63,1.58-1.36,2.35-2.18V70.5c-3.13,0-5.79,0.2-7.97,0.59
			c-2.19,0.4-3.97,0.92-5.34,1.56c-1.37,0.64-2.37,1.39-3,2.26c-0.62,0.87-0.94,1.84-0.94,2.92c0,1.02,0.17,1.91,0.5,2.65
			c0.33,0.74,0.78,1.35,1.34,1.82s1.22,0.82,1.98,1.03C476.01,83.55,476.83,83.66,477.72,83.66z"/>
		<path class="st2" d="M504.12,87.82V49.17h4.04c0.97,0,1.58,0.47,1.83,1.41l0.53,4.2c1.68-1.86,3.55-3.36,5.63-4.5
			c2.07-1.14,4.47-1.72,7.19-1.72c2.11,0,3.97,0.35,5.59,1.05c1.61,0.7,2.96,1.69,4.04,2.97c1.08,1.28,1.9,2.83,2.46,4.64
			c0.56,1.81,0.84,3.8,0.84,5.99v24.61h-6.79V63.21c0-2.92-0.67-5.19-2-6.81c-1.34-1.61-3.38-2.42-6.12-2.42
			c-2.01,0-3.88,0.48-5.63,1.45s-3.35,2.28-4.83,3.93v28.46H504.12z"/>
	</g>
	<g>
		<path class="st2" d="M245.43,138.99h-13.77v-1.66c0.37-0.03,0.92-0.08,1.62-0.14c0.71-0.06,1.2-0.15,1.46-0.28
			c0.47-0.19,0.81-0.47,1.03-0.85c0.22-0.38,0.33-0.88,0.33-1.48v-11.81h-15.59v11.55c0,0.55,0.09,1.01,0.27,1.38
			c0.18,0.37,0.53,0.7,1.06,0.98c0.26,0.14,0.74,0.28,1.41,0.42s1.21,0.22,1.6,0.23v1.66h-13.77v-1.66
			c0.37-0.03,0.92-0.08,1.62-0.14c0.71-0.06,1.2-0.15,1.46-0.28c0.47-0.19,0.81-0.47,1.03-0.85c0.22-0.38,0.33-0.88,0.33-1.48
			v-23.94c0-0.5-0.1-0.95-0.3-1.37c-0.2-0.41-0.55-0.74-1.05-0.97c-0.42-0.2-0.93-0.38-1.53-0.54c-0.6-0.15-1.12-0.25-1.55-0.28
			v-1.66h13.77v1.66c-0.44,0.01-0.97,0.08-1.6,0.21c-0.63,0.12-1.1,0.24-1.41,0.35c-0.53,0.19-0.88,0.5-1.06,0.94
			c-0.18,0.44-0.27,0.91-0.27,1.43v10.29h15.59v-10.05c0-0.5-0.1-0.95-0.3-1.37c-0.2-0.41-0.55-0.74-1.05-0.97
			c-0.42-0.2-0.93-0.38-1.53-0.54c-0.6-0.15-1.12-0.25-1.55-0.28v-1.66h13.77v1.66c-0.44,0.01-0.97,0.08-1.6,0.21
			c-0.63,0.12-1.1,0.24-1.41,0.35c-0.53,0.19-0.88,0.5-1.06,0.94c-0.18,0.44-0.27,0.91-0.27,1.43v23.91c0,0.55,0.09,1.01,0.27,1.38
			c0.18,0.37,0.53,0.7,1.06,0.98c0.27,0.14,0.74,0.28,1.41,0.42s1.21,0.22,1.6,0.23V138.99z"/>
		<path class="st2" d="M277.03,129.22l-0.63,9.77h-27.54v-1.66c0.47-0.03,1.09-0.1,1.87-0.2s1.29-0.21,1.52-0.32
			c0.5-0.23,0.85-0.54,1.04-0.91c0.19-0.37,0.29-0.85,0.29-1.43v-23.85c0-0.51-0.09-0.97-0.26-1.37s-0.53-0.72-1.08-0.97
			c-0.42-0.2-0.98-0.38-1.69-0.54c-0.71-0.15-1.27-0.25-1.69-0.28v-1.66h25.67v8h-1.75c-0.31-1.18-0.99-2.44-2.02-3.78
			c-1.04-1.33-2.02-2.06-2.96-2.19c-0.48-0.06-1.06-0.11-1.73-0.14c-0.67-0.03-1.43-0.05-2.29-0.05h-5.21v13.18h3.74
			c1.2,0,2.08-0.11,2.63-0.34c0.55-0.23,1.04-0.6,1.46-1.13c0.34-0.45,0.63-1.06,0.88-1.81c0.24-0.76,0.4-1.47,0.48-2.14h1.75v13
			h-1.75c-0.06-0.75-0.23-1.54-0.5-2.37c-0.27-0.83-0.56-1.44-0.85-1.81c-0.48-0.61-1.03-1.01-1.65-1.19s-1.43-0.28-2.44-0.28h-3.74
			v9.94c0,1,0.07,1.78,0.21,2.36c0.14,0.58,0.41,1.01,0.82,1.31c0.41,0.3,0.96,0.49,1.66,0.57c0.7,0.09,1.7,0.13,2.99,0.13
			c0.51,0,1.19,0,2.03,0c0.84,0,1.55-0.03,2.13-0.09c0.59-0.06,1.2-0.18,1.84-0.34c0.63-0.17,1.08-0.39,1.34-0.67
			c0.72-0.75,1.47-1.88,2.26-3.4c0.79-1.52,1.29-2.64,1.51-3.35H277.03z"/>
		<path class="st2" d="M310.4,138.99h-13.79v-1.66c1.22-0.08,2.22-0.23,3.03-0.47c0.8-0.23,1.2-0.52,1.2-0.87
			c0-0.14-0.02-0.31-0.05-0.51c-0.03-0.2-0.08-0.38-0.14-0.54l-2.75-7.44h-11.64c-0.44,1.09-0.79,2.04-1.06,2.85
			c-0.27,0.81-0.52,1.56-0.74,2.24c-0.2,0.67-0.34,1.21-0.42,1.64c-0.08,0.42-0.12,0.76-0.12,1.03c0,0.62,0.49,1.11,1.47,1.45
			s2.09,0.55,3.32,0.61v1.66h-12.49v-1.66c0.41-0.03,0.91-0.12,1.52-0.27c0.61-0.15,1.11-0.35,1.5-0.6
			c0.62-0.42,1.11-0.86,1.45-1.32c0.34-0.46,0.68-1.1,1.01-1.91c1.67-4.16,3.51-8.84,5.52-14.03c2.01-5.19,3.8-9.81,5.38-13.86h1.87
			l11.06,28.62c0.23,0.61,0.5,1.1,0.79,1.47c0.3,0.37,0.71,0.74,1.24,1.1c0.36,0.22,0.83,0.4,1.4,0.55
			c0.58,0.15,1.06,0.23,1.45,0.25V138.99z M297.05,125.43l-5.03-12.87l-4.95,12.87H297.05z"/>
		<path class="st2" d="M337.26,129.13l-0.7,9.86h-25.93v-1.66c0.37-0.03,0.92-0.09,1.62-0.17s1.2-0.18,1.48-0.3
			c0.47-0.2,0.81-0.5,1.02-0.89c0.21-0.39,0.32-0.89,0.32-1.5v-23.75c0-0.53-0.09-1-0.27-1.4c-0.18-0.4-0.53-0.73-1.06-0.98
			c-0.36-0.19-0.86-0.37-1.51-0.55c-0.65-0.18-1.18-0.29-1.6-0.32v-1.66h14v1.66c-0.44,0.01-1,0.09-1.69,0.23
			c-0.69,0.14-1.2,0.26-1.51,0.37c-0.53,0.19-0.89,0.51-1.09,0.96c-0.2,0.45-0.29,0.94-0.29,1.45v22.28c0,1.03,0.05,1.83,0.15,2.4
			c0.1,0.57,0.34,1.01,0.71,1.32c0.36,0.28,0.89,0.46,1.6,0.55c0.71,0.09,1.7,0.13,2.98,0.13c0.58,0,1.18-0.01,1.8-0.05
			c0.62-0.03,1.22-0.09,1.78-0.19c0.54-0.09,1.05-0.22,1.51-0.39c0.46-0.16,0.8-0.37,1.02-0.62c0.64-0.72,1.38-1.8,2.23-3.26
			c0.85-1.46,1.44-2.64,1.76-3.54H337.26z"/>
		<path class="st2" d="M365.54,114.82h-1.61c-0.14-0.56-0.39-1.23-0.76-2c-0.37-0.77-0.78-1.5-1.23-2.19
			c-0.47-0.72-0.98-1.34-1.53-1.88c-0.56-0.54-1.09-0.85-1.61-0.92c-0.48-0.06-1.09-0.11-1.83-0.14s-1.41-0.05-2.04-0.05h-1.36
			v26.53c0,0.51,0.11,0.99,0.33,1.41c0.22,0.43,0.6,0.76,1.15,0.99c0.28,0.11,0.87,0.26,1.76,0.44c0.9,0.19,1.59,0.29,2.09,0.3v1.66
			h-15.66v-1.66c0.44-0.03,1.1-0.1,2-0.19c0.9-0.09,1.52-0.21,1.86-0.35c0.51-0.2,0.89-0.49,1.13-0.88
			c0.24-0.38,0.36-0.89,0.36-1.53v-26.74h-1.36c-0.48,0-1.08,0.01-1.8,0.04c-0.72,0.02-1.4,0.07-2.06,0.15
			c-0.51,0.06-1.05,0.37-1.6,0.92c-0.55,0.55-1.06,1.18-1.53,1.88c-0.47,0.7-0.88,1.45-1.24,2.23c-0.36,0.79-0.61,1.44-0.75,1.95
			h-1.64v-9h28.92V114.82z"/>
		<path class="st2" d="M401.57,138.99H387.8v-1.66c0.37-0.03,0.92-0.08,1.63-0.14c0.71-0.06,1.2-0.15,1.46-0.28
			c0.47-0.19,0.81-0.47,1.03-0.85c0.22-0.38,0.33-0.88,0.33-1.48v-11.81h-15.59v11.55c0,0.55,0.09,1.01,0.27,1.38
			c0.18,0.37,0.53,0.7,1.06,0.98c0.26,0.14,0.74,0.28,1.41,0.42c0.68,0.14,1.21,0.22,1.6,0.23v1.66h-13.77v-1.66
			c0.37-0.03,0.92-0.08,1.62-0.14c0.71-0.06,1.2-0.15,1.46-0.28c0.47-0.19,0.81-0.47,1.03-0.85c0.22-0.38,0.33-0.88,0.33-1.48
			v-23.94c0-0.5-0.1-0.95-0.3-1.37c-0.2-0.41-0.55-0.74-1.05-0.97c-0.42-0.2-0.93-0.38-1.53-0.54c-0.6-0.15-1.12-0.25-1.55-0.28
			v-1.66H381v1.66c-0.44,0.01-0.97,0.08-1.6,0.21c-0.63,0.12-1.1,0.24-1.41,0.35c-0.53,0.19-0.88,0.5-1.06,0.94
			c-0.18,0.44-0.27,0.91-0.27,1.43v10.29h15.59v-10.05c0-0.5-0.1-0.95-0.3-1.37c-0.2-0.41-0.55-0.74-1.05-0.97
			c-0.42-0.2-0.93-0.38-1.53-0.54c-0.6-0.15-1.12-0.25-1.55-0.28v-1.66h13.77v1.66c-0.44,0.01-0.97,0.08-1.6,0.21
			c-0.63,0.12-1.1,0.24-1.41,0.35c-0.53,0.19-0.88,0.5-1.06,0.94c-0.18,0.44-0.27,0.91-0.27,1.43v23.91c0,0.55,0.09,1.01,0.27,1.38
			c0.18,0.37,0.53,0.7,1.06,0.98c0.27,0.14,0.74,0.28,1.41,0.42c0.68,0.14,1.21,0.22,1.6,0.23V138.99z"/>
		<path class="st2" d="M441.27,114c0,1.73-0.34,3.26-1.02,4.59c-0.68,1.33-1.62,2.44-2.82,3.31c-1.18,0.87-2.49,1.51-3.9,1.92
			c-1.42,0.4-2.92,0.61-4.51,0.61h-3.72v10.05c0,0.55,0.09,1.02,0.27,1.44c0.18,0.41,0.55,0.73,1.11,0.95
			c0.28,0.11,0.78,0.21,1.48,0.3c0.71,0.09,1.36,0.15,1.95,0.17v1.66h-14.24v-1.66c0.37-0.03,0.92-0.09,1.62-0.17s1.2-0.18,1.48-0.3
			c0.47-0.2,0.81-0.5,1.02-0.89c0.21-0.39,0.32-0.89,0.32-1.5v-23.94c0-0.55-0.08-1.04-0.23-1.47s-0.52-0.76-1.1-0.98
			c-0.59-0.2-1.18-0.35-1.76-0.43c-0.58-0.09-1.09-0.15-1.51-0.18v-1.66h15.15c3.08,0,5.59,0.74,7.52,2.23
			C440.3,109.54,441.27,111.52,441.27,114z M434.16,119.66c0.53-0.75,0.88-1.52,1.05-2.33c0.17-0.8,0.26-1.52,0.26-2.16
			c0-0.89-0.11-1.79-0.32-2.71c-0.21-0.92-0.57-1.72-1.09-2.41c-0.55-0.73-1.26-1.3-2.15-1.71c-0.89-0.4-2-0.61-3.32-0.61h-3.3
			v14.66h2.38c1.68,0,3.05-0.26,4.1-0.79C432.84,121.09,433.63,120.44,434.16,119.66z"/>
		<path class="st2" d="M470.75,129.13l-0.7,9.86h-25.93v-1.66c0.37-0.03,0.92-0.09,1.62-0.17s1.2-0.18,1.48-0.3
			c0.47-0.2,0.81-0.5,1.02-0.89c0.21-0.39,0.32-0.89,0.32-1.5v-23.75c0-0.53-0.09-1-0.27-1.4c-0.18-0.4-0.53-0.73-1.06-0.98
			c-0.36-0.19-0.86-0.37-1.51-0.55c-0.65-0.18-1.18-0.29-1.6-0.32v-1.66h14v1.66c-0.44,0.01-1,0.09-1.69,0.23
			c-0.69,0.14-1.2,0.26-1.51,0.37c-0.53,0.19-0.89,0.51-1.09,0.96c-0.2,0.45-0.29,0.94-0.29,1.45v22.28c0,1.03,0.05,1.83,0.15,2.4
			c0.1,0.57,0.34,1.01,0.71,1.32c0.36,0.28,0.89,0.46,1.6,0.55c0.71,0.09,1.7,0.13,2.98,0.13c0.58,0,1.18-0.01,1.8-0.05
			c0.62-0.03,1.22-0.09,1.78-0.19c0.54-0.09,1.05-0.22,1.51-0.39c0.46-0.16,0.8-0.37,1.02-0.62c0.64-0.72,1.38-1.8,2.23-3.26
			c0.85-1.46,1.44-2.64,1.76-3.54H470.75z"/>
		<path class="st2" d="M502.99,138.99H489.2v-1.66c1.22-0.08,2.22-0.23,3.03-0.47c0.8-0.23,1.2-0.52,1.2-0.87
			c0-0.14-0.02-0.31-0.05-0.51c-0.03-0.2-0.08-0.38-0.14-0.54l-2.75-7.44h-11.64c-0.44,1.09-0.79,2.04-1.06,2.85
			c-0.27,0.81-0.52,1.56-0.74,2.24c-0.2,0.67-0.34,1.21-0.42,1.64c-0.08,0.42-0.12,0.76-0.12,1.03c0,0.62,0.49,1.11,1.47,1.45
			s2.09,0.55,3.32,0.61v1.66h-12.49v-1.66c0.41-0.03,0.91-0.12,1.52-0.27c0.61-0.15,1.11-0.35,1.5-0.6
			c0.62-0.42,1.11-0.86,1.45-1.32c0.34-0.46,0.68-1.1,1.01-1.91c1.67-4.16,3.51-8.84,5.52-14.03c2.01-5.19,3.8-9.81,5.38-13.86h1.87
			l11.06,28.62c0.23,0.61,0.5,1.1,0.79,1.47c0.3,0.37,0.71,0.74,1.24,1.1c0.36,0.22,0.83,0.4,1.4,0.55
			c0.58,0.15,1.06,0.23,1.45,0.25V138.99z M489.64,125.43l-5.03-12.87l-4.95,12.87H489.64z"/>
		<path class="st2" d="M537.26,107.48c-0.44,0.01-1.11,0.14-2.01,0.37c-0.9,0.23-1.55,0.48-1.94,0.73
			c-0.56,0.39-0.94,1.14-1.13,2.24c-0.2,1.11-0.29,2.51-0.29,4.21v24.29h-2.03l-20.1-27.14v17.11c0,1.92,0.12,3.39,0.36,4.42
			c0.24,1.03,0.61,1.76,1.11,2.2c0.36,0.34,1.1,0.66,2.22,0.96c1.12,0.3,1.86,0.45,2.22,0.47v1.66h-13.61v-1.66
			c0.42-0.03,1.13-0.18,2.13-0.46c1-0.27,1.62-0.52,1.87-0.74c0.55-0.44,0.92-1.1,1.12-2c0.2-0.9,0.3-2.43,0.3-4.59v-16.34
			c0-0.72-0.12-1.43-0.37-2.15c-0.25-0.72-0.59-1.27-1.01-1.66c-0.56-0.51-1.32-0.95-2.28-1.32c-0.96-0.37-1.73-0.56-2.33-0.59
			v-1.66h9.48l18.65,25.29v-15.78c0-1.93-0.12-3.42-0.37-4.45c-0.25-1.04-0.61-1.73-1.07-2.07c-0.44-0.3-1.15-0.58-2.14-0.86
			c-0.99-0.28-1.74-0.44-2.26-0.47v-1.66h13.49V107.48z"/>
	</g>
</g>
</svg>
