<svg id="Outlined_Text" data-name="Outlined Text" xmlns="http://www.w3.org/2000/svg" viewBox="0 0 84.03 67.94"><defs><style>.cls-1{fill:#2661e4;}</style></defs><circle class="cls-1" cx="15.97" cy="5.62" r="5.62"/><circle class="cls-1" cx="42.05" cy="5.62" r="5.62"/><circle class="cls-1" cx="68.42" cy="5.62" r="5.62"/><path class="cls-1" d="M134.17,166.23a16.35,16.35,0,0,0-11.64-4.83l-.57,0a16.35,16.35,0,0,0-11,4.77l.1.12a17.9,17.9,0,0,1,4,8.81l2.4-2.41A7.31,7.31,0,0,1,122,170.6l.57,0A7.3,7.3,0,0,1,127.69,183L122,188.75,109.71,201l-5.07-5.07-6.49,6.48L109.71,214,122,201.72l12.21-12.21A16.48,16.48,0,0,0,134.17,166.23Z" transform="translate(-54.96 -146.03)"/><path class="cls-1" d="M108.7,189.51a16.45,16.45,0,0,0,4.76-12.89h0a16.46,16.46,0,0,0-3.72-9.25c-.33-.39-.67-.77-1-1.14a16.37,16.37,0,0,0-11.64-4.83h-.17a16.35,16.35,0,0,0-11.64,4.83c-.37.37-.72.75-1,1.14a16.32,16.32,0,0,0-3.72,9.25l3.75,3.75h0l-3.75-3.75a16.42,16.42,0,0,0,4.76,12.89l4.06,4.06,6.49-6.48L91.73,183a7.3,7.3,0,0,1-.81-9.33h0l1-1a7.11,7.11,0,0,1,10.15,0l1,1h0a7.29,7.29,0,0,1,1.31,4.17,7.21,7.21,0,0,1-2.14,5.15L97,188.27l-6.48,6.48L84.24,201,71.9,188.67,66.26,183a7.3,7.3,0,0,1,5.16-12.45l.48,0a7.19,7.19,0,0,1,4.67,2.11L79,175.12a18,18,0,0,1,3.94-8.81l.1-.12a16.34,16.34,0,0,0-11.12-4.77l-.48,0a16.46,16.46,0,0,0-11.64,28.11L71.9,201.64,84.24,214,97,201.23l6.49-6.48Z" transform="translate(-54.96 -146.03)"/></svg>