<svg id="_ÎÓÈ_1" data-name="—ÎÓÈ_1" xmlns="http://www.w3.org/2000/svg" viewBox="0 0 804.48 830.25"><defs><style>.cls-1,.cls-3{fill:#51d65e;}.cls-1,.cls-2{opacity:0.3;}.cls-4{fill:#ccab96;}.cls-5{fill:#51495b;}.cls-6{fill:#443d4f;}.cls-7{fill:#efe6e8;}.cls-8{fill:#2b80fc;}.cls-9{fill:#af8f7e;}.cls-10{fill:#0e77e0;}</style></defs><path class="cls-1" d="M615.86,2422.53a35.25,35.25,0,0,0-32.74-22.2H263.72a35.22,35.22,0,0,0-32.73,22.2l-20,50.22h24.94l11.66-28.84A26.26,26.26,0,0,1,272,2427.49h303a26.26,26.26,0,0,1,24.34,16.42l11.66,28.84h24.94Z" transform="translate(-211 -1642.49)"/><g class="cls-2"><circle class="cls-3" cx="660.37" cy="686.14" r="144.11"/><path class="cls-3" d="M855.76,2185.36s7.48-48.68,17.83-56.07,15.15,1.1,11.82,14.41S875,2177.93,878,2181.39s10.72,4,10.72,4l38,10.19s11.87,2.47,18.52-12.68S953,2148.5,959.69,2143s19.95-5.17,12.56,21.06-13.69,46.21-12.2,51S867.49,2215.19,855.76,2185.36Z" transform="translate(-211 -1642.49)"/></g><path class="cls-4" d="M515,2161.88l-67.91,290.53,28.84,2.93s41-66.19,46.89-93.54,4.56-40.37,6.51-51.44,42.33-86.61,54.05-126.34C569,2171,515,2161.88,515,2161.88Z" transform="translate(-211 -1642.49)"/><path class="cls-5" d="M475.89,2455.34v17.41h-46a11.7,11.7,0,0,1-8.37-3.34c-2.05-2.06-3.47-4.93-1-8.13,5-6.4,18.45-4.84,23.19-8.87s3.2-11.89,7.95-7.38S475.89,2455.34,475.89,2455.34Z" transform="translate(-211 -1642.49)"/><path class="cls-4" d="M706.27,2161.88l67.91,290.53-28.84,2.93s-41-66.19-46.89-93.54-4.56-40.37-6.51-51.44-42.33-86.61-54.05-126.34C652.22,2171,706.27,2161.88,706.27,2161.88Z" transform="translate(-211 -1642.49)"/><path class="cls-5" d="M745.34,2455.34v17.41h46a11.69,11.69,0,0,0,8.36-3.34c2-2.06,3.47-4.93,1-8.13-5-6.4-18.45-4.84-23.19-8.87s-3.2-11.89-7.95-7.38S745.34,2455.34,745.34,2455.34Z" transform="translate(-211 -1642.49)"/><path class="cls-5" d="M700.15,2093.35l30.49,144.93s-10,7.39-37.14,15.15-37.69,6.1-37.69,6.1-34.55-84.8-40.1-90.9-14.41-1.66-24.94,22.72-25.5,65.46-25.5,65.46-14,1.24-42.86-6.15-33.63-14-33.63-14S518,2099.16,542,2055.92,700.15,2093.35,700.15,2093.35Z" transform="translate(-211 -1642.49)"/><path class="cls-6" d="M702,2101.89s-24.43,9.92-76.26,9.65-66.51,10.5-79.26,39.89-31.23,97.26-31.23,97.26-15.89-2.83-26.42-12.07c6.15-27.39,24.67-127.58,49.06-171.92,57.09,10.53,164.16,34.46,164.16,34.46Z" transform="translate(-211 -1642.49)"/><path class="cls-4" d="M670.89,1879.3a6.84,6.84,0,0,0,8.22-1.78c3.65-4.18,7.39-12,7.39-12l43.83,6.67s-13.8,29.88-13.08,32.71a15.73,15.73,0,0,0,3.28,5.62s-21.86,34.11-56.16,21S670.89,1879.3,670.89,1879.3Z" transform="translate(-211 -1642.49)"/><path class="cls-4" d="M765.71,1850.43c-25.17,24.11-63.57,34.09-80.93,17.67s-7.11-53,18.07-77.15,55.72-26.58,73.08-10.16S790.88,1826.32,765.71,1850.43Z" transform="translate(-211 -1642.49)"/><path class="cls-7" d="M746.5,1783.07s-8.7,10.55-5.32,24.71,13.22,20.41,14.6,35.16-22.55,28.15-22.55,28.15,23.69,6.84,41.13-1.82,13.38-19.93,17.21-26,13.13-7.39,18.72-19.81-1.19-27.66-8.2-34.44-11.78-25.81-32.51-32.08-30.78,3.66-35.61,4.24-16.86.39-29.16,11.93-8,24.17-8,24.17,9.81-10.49,20.49-11.88S739.21,1784,746.5,1783.07Z" transform="translate(-211 -1642.49)"/><path class="cls-7" d="M802.47,1792.13s-8.71-24.92,16.9-30.24,37.44,27.46,24.94,42.57-37-3.88-37-3.88Z" transform="translate(-211 -1642.49)"/><path class="cls-8" d="M670.89,1879.3s-28.56,31.12-3.55,46.8c18.16,11.38,51.71-15.73,53.19-15.62s22.44,6.89,22.21,9.84-34,68.2-43.1,109.39,2.36,69.45,2.36,69.45-42.93,11.23-92.26-2.88-75.51-33.7-75.51-33.7,21.07-40.27,34.34-58.91,19.89-32.58,20.33-38.48-8.6-23.45,6.31-44.18,58-51.94,60-52.9S670.89,1879.3,670.89,1879.3Z" transform="translate(-211 -1642.49)"/><path class="cls-4" d="M742.84,1919s144.6,6.5,224-6.39c.69,5.61,2.65,16.32,2.65,16.32s-83.88,28.67-235.55,35C739.05,1939.86,742.84,1919,742.84,1919Z" transform="translate(-211 -1642.49)"/><path class="cls-8" d="M732,1914.23a267,267,0,0,0,27.84,3.3c14.94,1,29.94,1.08,29.94,1.08l-1.39,45.19s-39.94,3.83-53.5,6.69-21.27,16.17-21.27,16.17S713,1939,732,1914.23Z" transform="translate(-211 -1642.49)"/><path class="cls-4" d="M647.92,1861.6s-68.57-114.6-93.59-191c-5.3,2-15.71,5.15-15.71,5.15s9.42,76.83,73.53,214.44C631.15,1874.54,647.92,1861.6,647.92,1861.6Z" transform="translate(-211 -1642.49)"/><path class="cls-8" d="M657.16,1869a267.63,267.63,0,0,1-15.72-23.2c-7.71-12.84-14.71-26.1-14.71-26.1l-39.5,22s14.95,37.23,18.64,50.59-4.59,26.32-4.59,26.32S643.89,1897.32,657.16,1869Z" transform="translate(-211 -1642.49)"/><path class="cls-5" d="M986.51,1930.26l-2.18-13.87-2.18-13.87s6.41-3.79,5.39-10.33-2.1-8-12.37-6.38-10.84,3.33-9.81,9.87,8.3,8.17,8.3,8.17l2.18,13.87,2.18,13.87s-6.42,3.79-5.39,10.32,2.1,8,12.37,6.39,10.83-3.34,9.81-9.87S986.51,1930.26,986.51,1930.26Z" transform="translate(-211 -1642.49)"/><path class="cls-4" d="M966.8,1912.64s11.64-10.66,20.77-8.16,7.75,20.6.66,24.23-18.78.25-18.78.25S965.66,1918.53,966.8,1912.64Z" transform="translate(-211 -1642.49)"/><path class="cls-5" d="M529.66,1662.73l13.23-4.72,13.23-4.71s.26-7.44,6.49-9.66,8-2,11.52,7.81,2.24,11.11-4,13.33S559,1661.4,559,1661.4l-13.23,4.71-13.22,4.71s-.26,7.45-6.5,9.67-8,2-11.52-7.82-2.24-11.11,4-13.33S529.66,1662.73,529.66,1662.73Z" transform="translate(-211 -1642.49)"/><path class="cls-4" d="M554.56,1671.62s3.79-15.32-2.76-22.14-21.8,3-21.6,11,8.75,16.62,8.75,16.62S549.93,1675.44,554.56,1671.62Z" transform="translate(-211 -1642.49)"/><path class="cls-9" d="M684.78,1868.1s7.72,7.56,21.86,8.05,23.69-4,23.69-4l-3.68,8.15s-12.55,9.18-28.91,6.83-19.44-8.81-19.44-8.81Z" transform="translate(-211 -1642.49)"/><path class="cls-10" d="M597.16,1836.2s18.74,43.44,20,54-16.47,24-16.47,24,6.68-9.44,4.46-20.9-17.95-51.6-17.95-51.6Z" transform="translate(-211 -1642.49)"/><path class="cls-10" d="M590.81,1928.36s-9.46,27.15,39,48.21,75.66,12.75,73.16,18S674,2010.38,650.65,2012s-91.53,65-91.53,65-14.63-6.85-24.89-14.42c6.66-17.28,43.61-73.34,49.52-83.32S578.63,1946.67,590.81,1928.36Z" transform="translate(-211 -1642.49)"/></svg>