<svg id="Layer_1" data-name="Layer 1" xmlns="http://www.w3.org/2000/svg" viewBox="0 0 384.83 309.18"><defs><style>.cls-1{fill:#e5c0a8;}.cls-2{fill:#d8c4ba;}.cls-3{fill:#d4e3fb;}.cls-4{fill:#f2cbb1;}.cls-5{fill:#2b80fc;}.cls-6{fill:#51495b;}.cls-7{fill:#443d4f;}.cls-8{fill:#ffcaa6;}.cls-9{fill:#efe6e8;}.cls-10{fill:#d6bdb0;}.cls-11{fill:#e0c6b8;}.cls-12{fill:#51d65e;}.cls-13{fill:#d1b3a1;}.cls-14{fill:#f1f1f9;}.cls-15{fill:#32b738;}</style></defs><path class="cls-1" d="M1636.7,606s-6.53,21.11-17.67,31-34.32,22.07-34.32,22.07-3.7-2.12-9.83,2.18-10.81,9.77-2.91,10.43,55.37-8.44,60.21-17.71S1636.7,606,1636.7,606Z" transform="translate(-1321.01 -473.47)"/><path class="cls-2" d="M1405.58,550.91s24,35.74,20.1,54-33.4,20.72-40.91,5.36,7.5-27.24,7.5-27.24,10.07,12.12,11.81,11.13-.6-26.82-4.15-39A31.91,31.91,0,0,0,1405.58,550.91Z" transform="translate(-1321.01 -473.47)"/><path class="cls-3" d="M1520.65,716.21c-1.29-16.27,11.62-21.9,11.62-34.15s-9.36-23-9.36-23,7.1-2.2,7.1-6.17-4.52-6-4.52-6,8.4-16.55,42.94-16.55c-7.43-7.62-51.82,0-51.82,0s-44.38-7.62-51.81,0c34.54,0,42.94,16.55,42.94,16.55s-4.52,2-4.52,6,7.1,6.17,7.1,6.17-9.36,10.71-9.36,23,12.91,17.88,11.62,34.15-4.84,57.34-4.84,57.34h-5.55a9,9,0,0,0-8.86,9.1h46.57a9,9,0,0,0-8.87-9.1h-5.54S1521.94,732.47,1520.65,716.21Z" transform="translate(-1321.01 -473.47)"/><polygon class="cls-1" points="308.48 69.47 315.85 76.94 334.81 67.54 316.41 49.68 308.48 69.47"/><path class="cls-4" d="M1640.8,509.84c3.66,17.11-2,36.2-13.25,39.35s-24-10.83-27.68-27.94,3.09-30.87,14.39-34S1637.13,492.72,1640.8,509.84Z" transform="translate(-1321.01 -473.47)"/><path class="cls-5" d="M1653,541.11s21.39-3.81,41,34.68,9,87.61,9,87.61-37.12,9.73-77.48-.21c-8.71-16.55,3.23-37.08,6.14-48.66s-6.78-14.24-3.23-38.74S1639.8,543.35,1653,541.11Z" transform="translate(-1321.01 -473.47)"/><path class="cls-6" d="M1703,663.4s2.58,35.55-30,35.55-75.22-.33-76.19,1.32.08,18.79-2.58,35.92-5.81,33-5.81,33h-18.65s-8-87.94,1.21-98.62,56.5-11.5,56.5-11.5Z" transform="translate(-1321.01 -473.47)"/><path class="cls-7" d="M1587.74,773.5v9.15h-25s-3.65-2.44-1.46-5.81,11.6-3.34,16.8-3.34Z" transform="translate(-1321.01 -473.47)"/><polygon class="cls-8" points="266.74 300.03 267.38 295.75 252.49 295.75 252.49 300.08 266.74 300.03"/><path class="cls-4" d="M1542.85,590.6s-11.42-3.6-13.93-3.87-12.31,3.2-12.31,6,11.3,3.47,13.12,3.34,9.23,3.06,13.12,2.26S1542.85,590.6,1542.85,590.6Z" transform="translate(-1321.01 -473.47)"/><path class="cls-9" d="M1632,492.42s.29,5.16-1.28,8.51-13.68,7.45-13.92,14.27,6.66,16.39,12.65,16,17.13-3.62,19.31-13.11S1644,489.38,1632,492.42Z" transform="translate(-1321.01 -473.47)"/><path class="cls-3" d="M1698.44,706.4H1616a4.72,4.72,0,0,1,0-9.44h82.45a4.72,4.72,0,0,1,0,9.44Z" transform="translate(-1321.01 -473.47)"/><polygon class="cls-3" points="296.92 232.93 291.84 309.18 295.47 309.18 308.06 231.69 296.92 232.93"/><polygon class="cls-3" points="374.64 232.93 379.73 309.18 376.1 309.18 363.5 231.69 374.64 232.93"/><rect class="cls-3" x="299.95" y="241.62" width="69.85" height="2.23"/><polygon class="cls-10" points="63.76 64.5 58.62 77.77 38.89 73.58 48.76 49.65 63.76 64.5"/><path class="cls-11" d="M1361.46,512.31c3.33,17.18,16,32.36,27.54,30.59s17.75-19.8,14.41-37-14.92-27-26.5-25.24S1358.12,495.13,1361.46,512.31Z" transform="translate(-1321.01 -473.47)"/><path class="cls-12" d="M1361.9,542.19s-13.41-1.07-31.46,37.41-4.67,83.8-4.67,83.8,34.16,9.73,71.28-.21c8-16.55-3-37.08-5.64-48.66s6.82-8.3,3.56-32.8S1374,544.42,1361.9,542.19Z" transform="translate(-1321.01 -473.47)"/><path class="cls-6" d="M1326,663.4S1323.42,699,1356,699s75.22-.33,76.19,1.32,3.4,10.85,9.69,30.71c5.23,16.5,20.57,38.24,20.57,38.24h18.64s-13.87-87.94-23.07-98.62-56.5-11.5-56.5-11.5Z" transform="translate(-1321.01 -473.47)"/><path class="cls-7" d="M1463.11,773.5v9.15h25s3.65-2.44,1.46-5.81-11.59-3.34-16.8-3.34Z" transform="translate(-1321.01 -473.47)"/><polygon class="cls-13" points="142.11 300.03 141.46 295.75 156.35 295.75 156.35 300.08 142.11 300.03"/><path class="cls-3" d="M1330.55,706.4H1413a4.72,4.72,0,0,0,0-9.44h-82.45a4.72,4.72,0,0,0,0,9.44Z" transform="translate(-1321.01 -473.47)"/><polygon class="cls-3" points="90.06 232.93 95.15 309.18 91.51 309.18 78.92 231.69 90.06 232.93"/><polygon class="cls-3" points="12.34 232.93 7.25 309.18 10.89 309.18 23.48 231.69 12.34 232.93"/><rect class="cls-3" x="1338.19" y="715.09" width="69.85" height="2.23" transform="translate(1425.22 958.94) rotate(180)"/><path class="cls-14" d="M1610.07,630.42H1423.15a5.3,5.3,0,0,1,0-10.6h186.92a5.3,5.3,0,0,1,0,10.6Z" transform="translate(-1321.01 -473.47)"/><path class="cls-11" d="M1412.44,618.17s3.31-2.28,9.61-3.15,16.22,2.65,14.28,4.8-18.13,3.79-18.13,3.79S1412,625.16,1412.44,618.17Z" transform="translate(-1321.01 -473.47)"/><path class="cls-9" d="M1384.77,499.81s1.87,13.41,0,16.55-9.45,4.8-10.1,8.28-2.58,9.77-12.59,8.44-12.43-7.45-11.78-13.07,3.23-10.27,1.45-16.23-1.94-18.46,6-23.3,16.31-4,17.76-4.84,11.14-5.13,19.69,1.33,10.35,11.85,7.91,15.89S1398.26,503.78,1384.77,499.81Z" transform="translate(-1321.01 -473.47)"/><path class="cls-2" d="M1405.58,550.91s-7.4-12-9.18-11.91-6.31,4.26-6.31,5.07.6,3.48,1.33,3.29.36-1.77.85-2.41,4-1.44,4.17-1.19.61,2.36.37,2.48-3,1.87-2.85,3.73,1.21,6.95,2.06,7,1-1.86,1-1.86,2.3,7.2,5.32,6.77S1405.58,550.91,1405.58,550.91Z" transform="translate(-1321.01 -473.47)"/><path class="cls-5" d="M1525.39,614c-.84-2.44-.56-7.16-.56-7.16s1.29-.25,1.65-2.77-2-4.1-2-4.1v-3.43h-2.1V600s-2.38,1.57-2,4.1,1.65,2.77,1.65,2.77.29,4.72-.56,7.16-3.11,3-3.11,3.77v2h10.17v-2C1528.5,617.05,1526.24,616.47,1525.39,614Z" transform="translate(-1321.01 -473.47)"/><path class="cls-9" d="M1457.32,614c-.85-2.44-.57-7.16-.57-7.16s1.29-.25,1.66-2.77-2-4.1-2-4.1v-3.43h-2.1V600s-2.38,1.57-2,4.1,1.66,2.77,1.66,2.77.28,4.72-.57,7.16-3.1,3-3.1,3.77v2h10.16v-2C1460.42,617.05,1458.16,616.47,1457.32,614Z" transform="translate(-1321.01 -473.47)"/><path class="cls-6" d="M1547.47,618.31c-.31-.62-2-.68-2.4-2.48a20.4,20.4,0,0,1-.63-5.4c.91,0,1.45-3-.73-3s-1.63,3-.72,3a20.4,20.4,0,0,1-.63,5.4c-.45,1.8-2.1,1.86-2.4,2.48a4.89,4.89,0,0,0-.36,1.51h8.23A4.89,4.89,0,0,0,1547.47,618.31Z" transform="translate(-1321.01 -473.47)"/><path class="cls-5" d="M1478.71,618.31c-.3-.62-2-.68-2.4-2.48a20.4,20.4,0,0,1-.63-5.4c.91,0,1.46-3-.72-3s-1.64,3-.73,3a20.4,20.4,0,0,1-.63,5.4c-.44,1.8-2.09,1.86-2.4,2.48a4.89,4.89,0,0,0-.36,1.51h8.23A4.89,4.89,0,0,0,1478.71,618.31Z" transform="translate(-1321.01 -473.47)"/><path class="cls-5" d="M1448.28,618.31c-.31-.62-2-.68-2.4-2.48a20.4,20.4,0,0,1-.63-5.4c.91,0,1.45-3-.73-3s-1.63,3-.72,3a20.82,20.82,0,0,1-.63,5.4c-.45,1.8-2.1,1.86-2.4,2.48a4.89,4.89,0,0,0-.36,1.51h8.23A4.89,4.89,0,0,0,1448.28,618.31Z" transform="translate(-1321.01 -473.47)"/><path class="cls-9" d="M1503.76,618.31c-.3-.62-2-.68-2.39-2.48a20.4,20.4,0,0,1-.63-5.4c.91,0,1.45-3-.73-3s-1.63,3-.72,3a20.82,20.82,0,0,1-.63,5.4c-.45,1.8-2.1,1.86-2.4,2.48a4.89,4.89,0,0,0-.36,1.51h8.23A4.72,4.72,0,0,0,1503.76,618.31Z" transform="translate(-1321.01 -473.47)"/><path class="cls-9" d="M1491.24,618.31c-.31-.62-2-.68-2.4-2.48a20.4,20.4,0,0,1-.63-5.4c.91,0,1.45-3-.73-3s-1.63,3-.72,3a20.4,20.4,0,0,1-.63,5.4c-.45,1.8-2.1,1.86-2.4,2.48a4.89,4.89,0,0,0-.36,1.51h8.23A4.89,4.89,0,0,0,1491.24,618.31Z" transform="translate(-1321.01 -473.47)"/><path class="cls-9" d="M1565.91,618.31c-.3-.62-2-.68-2.4-2.48a20.4,20.4,0,0,1-.63-5.4c.91,0,1.46-3-.72-3s-1.64,3-.73,3a20.4,20.4,0,0,1-.63,5.4c-.44,1.8-2.09,1.86-2.4,2.48a4.89,4.89,0,0,0-.36,1.51h8.23A4.89,4.89,0,0,0,1565.91,618.31Z" transform="translate(-1321.01 -473.47)"/><path class="cls-6" d="M1597.43,618.31c-.31-.62-2-.68-2.4-2.48a20.4,20.4,0,0,1-.63-5.4c.91,0,1.45-3-.73-3s-1.63,3-.72,3a20.4,20.4,0,0,1-.63,5.4c-.45,1.8-2.1,1.86-2.4,2.48a4.89,4.89,0,0,0-.36,1.51h8.23A4.89,4.89,0,0,0,1597.43,618.31Z" transform="translate(-1321.01 -473.47)"/><path class="cls-5" d="M1584.35,618.31c-.3-.62-1.95-.68-2.4-2.48a20.82,20.82,0,0,1-.63-5.4c.91,0,1.46-3-.72-3s-1.64,3-.73,3a20.4,20.4,0,0,1-.63,5.4c-.44,1.8-2.09,1.86-2.39,2.48a4.72,4.72,0,0,0-.37,1.51h8.23A4.89,4.89,0,0,0,1584.35,618.31Z" transform="translate(-1321.01 -473.47)"/><path class="cls-5" d="M1670.64,574.67a91,91,0,0,1-9.78,23.79c-6.94,11.43-29.21,16.07-29.21,16.07s.89-5.1.12-7.93-2.44-8.14-2.44-8.14Z" transform="translate(-1321.01 -473.47)"/><path class="cls-4" d="M1642,556.26s-22.29,17.21-52,24.5-47.15,9.84-47.15,9.84l-.49,7.7s41.7,12.25,80,3,52-22.26,49.54-37.41S1654.48,548.1,1642,556.26Z" transform="translate(-1321.01 -473.47)"/><path class="cls-15" d="M1373.11,585.06l2.85-24.17s.49,23.67,5.81,35.68,9.22,13,9.22,13l6.85,20.82s-15.47,8.77-24.73.83S1373.11,585.06,1373.11,585.06Z" transform="translate(-1321.01 -473.47)"/><path class="cls-15" d="M1344.48,583s.5-15.33,4.08-25.62c-7.62,21.6-14,57.35-8.83,80s9.78,24.69,9.78,24.69l40.82-2.32s9.15-4.49,9.6-9.08a42.37,42.37,0,0,0-.52-9.94l-23.12-1.61s-17-12-17.56-14S1344.48,583,1344.48,583Z" transform="translate(-1321.01 -473.47)"/><path class="cls-11" d="M1373.11,585.06s-2.31,43,6.73,45.36,32.6-12.25,32.6-12.25l5.76,5.44s-20,28.33-50.31,27S1344.48,583,1344.48,583Z" transform="translate(-1321.01 -473.47)"/></svg>