<svg id="Layer_1" data-name="Layer 1" xmlns="http://www.w3.org/2000/svg" viewBox="0 0 530.38 436.35"><defs><style>.cls-1{fill:#d4e3fb;}.cls-2{fill:#f1f1f9;}.cls-3{fill:#2661e4;}.cls-4{fill:#f2cbb1;}.cls-5{fill:#443d4f;}.cls-6{fill:#51495b;}.cls-7{fill:#2b80fc;}.cls-8{fill:#efe6e8;}.cls-9{fill:#e5c0a8;}.cls-10{fill:#e0d5d8;}.cls-11{fill:#51d65e;}.cls-12{fill:#9d83b2;}</style></defs><circle class="cls-1" cx="735.97" cy="785.61" r="12.99" transform="translate(-368.85 -293.14) rotate(-9.22)"/><polygon class="cls-1" points="284.2 370.74 281.25 436.35 285.46 436.35 311.8 370.92 284.2 370.74"/><polygon class="cls-1" points="441.56 370.74 444.5 436.35 440.29 436.35 413.96 370.92 441.56 370.74"/><polygon class="cls-1" points="43.78 42.81 214.09 42.81 239.23 324.82 128.96 301.23 43.78 42.81"/><path class="cls-1" d="M501.11,797.39H686.8s27.77-3.24,29.84-43.75-28.75-60.47-70.08-50.77-72.79,7.91-90.2-38.1S535,587.3,540.07,567.36s4.49-53.65-18-81.17-63.48-27.53-88.76-13.48-16.29,48.31,0,94.65c13.36,38,22.58,168.43,43.12,214.09A27,27,0,0,0,501.11,797.39Z" transform="translate(-252.51 -421.17)"/><polygon class="cls-2" points="117.58 370.74 114.63 436.35 118.84 436.35 145.18 370.92 117.58 370.74"/><polygon class="cls-2" points="274.94 370.74 277.88 436.35 273.67 436.35 247.34 370.92 274.94 370.74"/><path class="cls-3" d="M548.39,564.71s11.54,5.67,24.16,25.58,38.35,44.9,37.38,60.19-25.79,15.66-32.92,4.07C576,643,575.22,641,575.22,641s-18-26.62-18.93-24.85S544.85,580.64,548.39,564.71Z" transform="translate(-252.51 -421.17)"/><path class="cls-4" d="M603.09,843.6v6.8s-.86,5.39,3.58,5.39h13.92V843.6Z" transform="translate(-252.51 -421.17)"/><path class="cls-5" d="M603.81,857.52h31.31a1.59,1.59,0,0,0,1.59-1.62,7.38,7.38,0,0,0-4.06-6.54c-5.23-2.91-12.06-3.51-12.06-3.51v5.83s-.86,2.59-6.23,3c-4.19.31-8.74.29-10.54.27a.79.79,0,0,0-.79.79v1A.79.79,0,0,0,603.81,857.52Z" transform="translate(-252.51 -421.17)"/><path class="cls-5" d="M554.89,685.57S659.07,693,661.21,725.35,622.36,843.6,622.36,843.6H602s5.26-35.81,10.18-61.51c4.86-25.38,12.61-33,10.2-34.2s-61.05,2.38-86.34-.8-24.49-35.79-24.49-35.79S493.89,675.54,554.89,685.57Z" transform="translate(-252.51 -421.17)"/><path class="cls-6" d="M545.12,695.3s69.63-2.29,71.78,30.05S592.75,843.6,592.75,843.6H572.37s.84-35.26,1.64-61.51,4-31.82,1.61-33-58.62,1.19-83.91-2-24.5-35.79-24.5-35.79S484.12,685.27,545.12,695.3Z" transform="translate(-252.51 -421.17)"/><path class="cls-7" d="M497.18,551.74s1.18,20.85,20.56,21.61,13.85-16.72,16.07-17.1,14.87,6.08,16,11,.16,14.81,3.32,22.41a88,88,0,0,1,6.31,31.16c0,11.39-7.61,10.72-9.63,18s3.86,28.7,5,46.56c-13.74,13.3-39.73,11.4-57.68,13.3a58.33,58.33,0,0,0-30,12.58,627.73,627.73,0,0,1-3.64-68.81c0-39.13,8.38-79,13.11-83.58S497.18,551.74,497.18,551.74Z" transform="translate(-252.51 -421.17)"/><path class="cls-4" d="M573.53,843.6v6.8s-.86,5.39,3.58,5.39H591V843.6Z" transform="translate(-252.51 -421.17)"/><path class="cls-6" d="M574.25,857.52h31.3a1.59,1.59,0,0,0,1.6-1.62,7.38,7.38,0,0,0-4.06-6.54c-5.23-2.91-12.06-3.51-12.06-3.51v5.83s-.86,2.59-6.23,3c-4.19.31-8.75.29-10.54.27a.79.79,0,0,0-.8.79v1A.8.8,0,0,0,574.25,857.52Z" transform="translate(-252.51 -421.17)"/><path class="cls-3" d="M464.29,621.89l11-18.38s5.2,23.18,37,25,45,0,45,0-6.86,8.83-7.74,12.52.63,10.21.63,10.21-29.24-3.89-45.32,8.35-15.43,40.55-15.43,40.55-14.49,5.11-22.14,11.16C462.66,683.85,463.56,635.65,464.29,621.89Z" transform="translate(-252.51 -421.17)"/><path class="cls-4" d="M497.18,551.74s4.26-.53,5.47-2.72,3.28-20,3.28-20l25.36,19.3s-1.21,6.06,0,7a5.31,5.31,0,0,0,3.06.93s7.14,22.74-18,19.58S497.18,551.74,497.18,551.74Z" transform="translate(-252.51 -421.17)"/><polygon class="cls-6" points="312.09 106.64 297.31 86.8 297.31 88.74 311.27 108.67 312.09 106.64"/><path class="cls-4" d="M502.43,497.63c-3.87,24.13,5.66,50.25,22.05,53.72s33.42-17,37.3-41.15-6.87-42.73-23.26-46.2S506.31,473.51,502.43,497.63Z" transform="translate(-252.51 -421.17)"/><path class="cls-8" d="M548.93,481.88a21.22,21.22,0,0,1-12.13,12.91c-9.52,3.69-17,.51-26.09,5.58s-7.25,24.23-7.25,24.23-13.39-10.94-15.34-24.45,6.16-15.66,8.12-20.27-1-10.52,4-18.69,16.43-10.33,23.13-9,19.58-3.49,31.45,6,10.16,19.21,11.74,22.22,6.5,9.89,4.74,21.58-10.75,14.25-10.75,14.25,2.14-9.84-1.31-16.55S551.28,486.47,548.93,481.88Z" transform="translate(-252.51 -421.17)"/><path class="cls-8" d="M521.41,453.2s17.85-4.89,10.71-21.79-30.75-10.65-34.49,2.58,17,19.77,17,19.77Z" transform="translate(-252.51 -421.17)"/><path class="cls-6" d="M527.67,511.65c-5.76.32-10.2,4.58-9.92,9.5s5.17,8.66,10.93,8.33,10.19-4.58,9.91-9.5S533.42,511.32,527.67,511.65Zm.91,16.2c-4.7.27-8.69-2.78-8.92-6.8s3.4-7.5,8.1-7.77,8.7,2.78,8.93,6.8S533.29,527.58,528.58,527.85Z" transform="translate(-252.51 -421.17)"/><path class="cls-6" d="M554.36,517.29c-5.75.32-10.19,4.58-9.92,9.5s5.17,8.66,10.93,8.33,10.19-4.58,9.92-9.5S560.12,517,554.36,517.29Zm.92,16.2c-4.7.26-8.7-2.78-8.93-6.81s3.4-7.49,8.1-7.76,8.7,2.78,8.93,6.8S560,533.22,555.28,533.49Z" transform="translate(-252.51 -421.17)"/><path class="cls-6" d="M537.87,522.55s1.18-1.09,4-.68a4.57,4.57,0,0,1,3.68,2.73l-.68.73a5.47,5.47,0,0,0-3.19-2.1,7.23,7.23,0,0,0-3.86.5Z" transform="translate(-252.51 -421.17)"/><polygon class="cls-6" points="267.14 95.24 252.36 75.4 252.36 77.34 266.33 97.27 267.14 95.24"/><path class="cls-9" d="M505.61,531.59s3.94,11.5,11.35,16.3,13.87,3.65,13.87,3.65v2.71s-6.46,3.1-16.19,0-11-9.07-11-9.07Z" transform="translate(-252.51 -421.17)"/><path class="cls-4" d="M557.71,624.55s36,8.65,46.23,18.48-1.71,21.48-20.46,14.38-28.34-27.08-28.34-27.08Z" transform="translate(-252.51 -421.17)"/><path class="cls-4" d="M436.09,610s-24.94,58.25,6.37,58.61,54.61-23.12,54.61-23.12l3-10s-46.5,14-49.23,9.65,8.56-28.22,8.56-28.22Z" transform="translate(-252.51 -421.17)"/><path class="cls-7" d="M479.86,556.79s-10.64,1.27-23.57,13.84-26.39,47.29-30.4,64.6-4.37,33.88,5.28,38.61,13.65-1.27,13.47-5.27,1.09-9.66,3.1-14.39,6.37-5.64,8.55-10.74,3.27-17.47,10.92-25.12S485.41,579.18,479.86,556.79Z" transform="translate(-252.51 -421.17)"/><path class="cls-6" d="M494.72,631.66l54.86,22.13a7.84,7.84,0,0,1-3.25.42c-2-.11-50.71-19.92-52.71-21.12S492.52,630.77,494.72,631.66Z" transform="translate(-252.51 -421.17)"/><path class="cls-6" d="M555.75,608.1l-29.27,51.4a7.76,7.76,0,0,0,2.82-1.68c1.47-1.32,27.39-47.1,28.2-49.28S556.93,606,555.75,608.1Z" transform="translate(-252.51 -421.17)"/><path class="cls-4" d="M557.71,624.55s-2.94-1.74-9.49.81-10.8,4.12-11,7.28,3.76,10.85,9,9.43S562,631.52,562,631.52Z" transform="translate(-252.51 -421.17)"/><path class="cls-4" d="M493.25,639s1.63-3,8.56-4.18,11.39-2,13.22.58,2.34,11.25-2.87,12.71-18.91-2.3-18.91-2.3Z" transform="translate(-252.51 -421.17)"/><path class="cls-6" d="M495.84,631.34a3.33,3.33,0,1,0-3.33,3.32A3.33,3.33,0,0,0,495.84,631.34Z" transform="translate(-252.51 -421.17)"/><path class="cls-6" d="M560.53,606.71a3.33,3.33,0,1,0-3.32,3.33A3.32,3.32,0,0,0,560.53,606.71Z" transform="translate(-252.51 -421.17)"/><path class="cls-8" d="M523.83,659.5a51.58,51.58,0,0,0,13.34-3c7.55-2.73,14.15-4.83,14.6-3.92s3.11,23.67,6.15,26.4,14.32,4.59,19.61,9.12,2.17,12.64-10.19,10-16.93-2.55-22.94-1.82-13.29,0-14-8.37S523.83,659.5,523.83,659.5Z" transform="translate(-252.51 -421.17)"/><path class="cls-10" d="M529.33,681.22s5.06.36,9.7,5.45,5.37,9.56,5.37,9.56-7.15,2.23-11.2-1.55S529.33,681.22,529.33,681.22Z" transform="translate(-252.51 -421.17)"/><path class="cls-10" d="M572.33,685s-2,.94-3.58,4.9a15.07,15.07,0,0,0-.33,8.4s4.6,1.89,8.75-.25S583.4,689.14,572.33,685Z" transform="translate(-252.51 -421.17)"/><path class="cls-2" d="M385.17,797.39H521.73s27.78-3.24,29.84-43.75-28.74-60.47-70.07-50.77-72.79,7.91-90.2-38.1S370,587.3,375,567.36s4.49-53.65-18-81.17-63.47-27.53-88.75-13.48-16.29,48.31,0,94.65c13.36,38,71.7,168.43,92.24,214.09A27,27,0,0,0,385.17,797.39Z" transform="translate(-252.51 -421.17)"/><circle class="cls-11" cx="498.53" cy="844.53" r="12.99" transform="translate(-433.21 -284.04) rotate(-13.28)"/><circle class="cls-5" cx="467.21" cy="844.53" r="12.99" transform="translate(-381.76 -335.43) rotate(-9.22)"/><circle class="cls-5" cx="436.06" cy="377.43" r="12.99"/><circle class="cls-7" cx="755.2" cy="801.15" r="12.99" transform="matrix(0.99, -0.16, 0.16, 0.99, -371.09, -289.86)"/><circle class="cls-11" cx="710" cy="794.96" r="12.99" transform="translate(-416.16 -236.78) rotate(-13.28)"/><circle class="cls-2" cx="480.09" cy="383.19" r="12.99"/><polygon class="cls-12" points="522.09 369.12 518.11 383.19 467.11 383.19 416.1 383.19 412.12 369.12 404.22 369.12 407.85 383.19 417.98 436.35 467.11 436.35 516.24 436.35 526.36 383.19 529.99 369.12 522.09 369.12"/><path class="cls-5" d="M467.21,857.52H400.47s-.25-1.73,3.94-1.73H465Z" transform="translate(-252.51 -421.17)"/><path class="cls-11" d="M521.92,857.52H499l.46-1.73s20.66.73,22.11.87S521.92,857.52,521.92,857.52Z" transform="translate(-252.51 -421.17)"/><circle class="cls-7" cx="769.91" cy="844.53" r="12.99" transform="translate(-425.95 -221.69) rotate(-13.28)"/><path class="cls-7" d="M719.62,804.36s10.21,1.7,14.46,14.2,14.37,30.53,28.67,36.8c1.19-.63,0-1.24,0-1.24a56.55,56.55,0,0,1-17.16-15.9c-8-11-7.93-17-11.63-24.09S726.76,804.36,719.62,804.36Z" transform="translate(-252.51 -421.17)"/></svg>