<svg id="Layer_1" data-name="Layer 1" xmlns="http://www.w3.org/2000/svg" viewBox="0 0 502.63 306.11"><defs><style>.cls-1{fill:#f1f1f9;}.cls-2{fill:#d4e3fb;}.cls-3{fill:#f7f6f1;}.cls-4{fill:#fff;}.cls-5{fill:#002040;}.cls-6{fill:#232b59;}.cls-7{fill:#e5c0a8;}.cls-8{fill:#443d4f;}.cls-9{fill:#51495b;}.cls-10{fill:#2661e4;}.cls-11{fill:#f2cbb1;}.cls-12{fill:#2b80fc;}.cls-13{fill:#001030;}.cls-14{fill:#778491;}.cls-15{fill:#51d65e;}.cls-16{fill:#00042d;}.cls-17{fill:#32b738;}.cls-18{fill:#001b44;}.cls-19{fill:#abbcc9;}.cls-20{fill:#d1b3a1;}</style></defs><path class="cls-1" d="M354.49,613.36c12-9,27.47-16.55,33.81-19.17a455,455,0,0,1,87.43-26.27c10.09-1.95,20.69-3.54,30.47-.34s18.41,12.61,17.52,23.13c-1.35,16-21.7,23.35-26.66,38.61,18.47,2.07,36.88-3.12,55.34-5.23s28-.38,41.51,12.75c17.29,16.83,16.41,45.12,12.36,69.25-5.06,30.18-10.25,53.34-23.53,82.58-8.7,19.18-22.24,36.38-40.93,45.66-20.22,10-39.84,7.5-61.68,6.61-3.45-.14-7.15-.37-9.89-2.54s-3.66-7-.88-9.16c-109.88-.26-217.73,52-326.48,35.75-14.27-2.13-30.61-7.35-35.47-21.31-4.49-12.9,3.2-26.74,11.44-37.5,50.73-66.28,130.91-100.41,209.21-125.42,6.88-2.2,14-4.49,19.3-9.53s8.06-13.7,4.33-20c-3.09-5.25-9.74-7.69-12.13-13.3C336.26,630.17,344,621.21,354.49,613.36Z" transform="translate(-106.08 -562.33)"/><g id="plant2"><path class="cls-1" d="M204.54,824c16.28-11,32.58-44.55,30.79-66.48C196.53,776.34,204.54,824,204.54,824Z" transform="translate(-106.08 -562.33)"/><path class="cls-2" d="M204.54,824.43a.58.58,0,0,1-.18,0,.44.44,0,0,1-.26-.34,81.22,81.22,0,0,1,.85-26.33,61.57,61.57,0,0,1,8.83-22.13,52.77,52.77,0,0,1,21.35-18.49.45.45,0,0,1,.64.37c.85,10.38-2.31,24.06-8.66,37.55a99.15,99.15,0,0,1-10.29,17.27,52.32,52.32,0,0,1-12,12.06A.43.43,0,0,1,204.54,824.43Zm30.39-66.24c-19.42,9.7-26.55,26.89-29.11,39.67a82.33,82.33,0,0,0-.95,25.35c7.54-5.36,15.51-16,21.44-28.57C232.46,781.57,235.59,768.34,234.93,758.19Z" transform="translate(-106.08 -562.33)"/><path class="cls-1" d="M153.2,831.83c-9.91-7.06-52.48-48.85-38.33-85.35,41.06,25,43.91,84.49,43.91,84.49Z" transform="translate(-106.08 -562.33)"/><path class="cls-2" d="M153.2,832.27a.5.5,0,0,1-.26-.08c-4.83-3.44-18.11-15.74-28.3-31.76-5.72-9-9.61-17.77-11.58-26.11-2.37-10.08-1.9-19.5,1.4-28a.49.49,0,0,1,.27-.26.5.5,0,0,1,.38,0A78.37,78.37,0,0,1,139.43,770a114.88,114.88,0,0,1,13.22,28,142.35,142.35,0,0,1,6.58,33,.44.44,0,0,1-.38.46l-5.58.86Zm-38.1-85.13c-7.12,19.08,1.64,39.23,10.29,52.82,10,15.75,23,27.85,27.92,31.4l5-.76a143.66,143.66,0,0,0-6.52-32.37C146.52,782,135.88,760,115.1,747.14Z" transform="translate(-106.08 -562.33)"/><path class="cls-2" d="M153.2,831.83c-9.91-7.06-52.48-48.85-38.33-85.35,7.51,49.36,43.91,84.49,43.91,84.49Z" transform="translate(-106.08 -562.33)"/><path class="cls-2" d="M149.2,765.68c4.17,26.47,18.21,64,18.21,64L158.78,831s-44.16-61.88-8.61-131.71C150.17,699.26,145,739.21,149.2,765.68Z" transform="translate(-106.08 -562.33)"/><path class="cls-1" d="M177,828.19l-9.58,1.47s-14-37.51-18.21-64,1-66.42,1-66.42C171.85,732.34,181.18,805.91,177,828.19Z" transform="translate(-106.08 -562.33)"/><path class="cls-2" d="M167.41,830.1a.43.43,0,0,1-.41-.29c-.14-.37-14.11-37.85-18.24-64.06-2.16-13.71-1.78-31.08-1.08-43.23.76-13.16,2-23.22,2-23.32a.45.45,0,0,1,.34-.38.47.47,0,0,1,.48.19c5.12,7.82,9.82,18.27,14,31.08a289.14,289.14,0,0,1,9.2,37.6c4.4,24.64,5.89,49,3.71,60.58a.46.46,0,0,1-.37.36l-9.58,1.46ZM150.47,700.53c-.81,6.9-4.54,41.56-.84,65.08,3.91,24.79,16.67,59.74,18.07,63.55l8.91-1.36c2.08-11.62.58-35.62-3.77-59.95C169.86,751.11,163,720.37,150.47,700.53Z" transform="translate(-106.08 -562.33)"/><path class="cls-1" d="M204.54,824s25.41-72.28-1-119.61c-21.29,43.19-14.84,104.62-9.7,121.25Z" transform="translate(-106.08 -562.33)"/><path class="cls-2" d="M193.8,826.07a.45.45,0,0,1-.42-.32c-2.73-8.82-5.48-28.48-5.08-50.8.34-19.28,3.19-47.21,14.8-70.78a.47.47,0,0,1,.39-.25h0a.45.45,0,0,1,.39.23C210,715,213.78,728.07,215.27,743a175,175,0,0,1-.89,39A228.39,228.39,0,0,1,205,824.13a.42.42,0,0,1-.35.29l-10.73,1.64Zm9.73-120.74c-20,41.48-15,101.16-9.41,119.79l10.08-1.54a229.55,229.55,0,0,0,9.3-41.73C216.24,760.26,216.71,729.56,203.53,705.33Z" transform="translate(-106.08 -562.33)"/><path class="cls-2" d="M177,828.19l16.81-2.57s20.47-53-5.56-101C172.91,746.7,162.45,787.85,177,828.19Z" transform="translate(-106.08 -562.33)"/><path class="cls-3" d="M147.86,728a.39.39,0,0,1-.28-.12l-6.5-6.32a.41.41,0,1,1,.58-.59l6.49,6.32a.41.41,0,0,1,0,.59A.42.42,0,0,1,147.86,728Z" transform="translate(-106.08 -562.33)"/><path class="cls-3" d="M149.35,767.13a.39.39,0,0,1-.29-.13l-13-13.59a.41.41,0,0,1,.6-.57l13,13.59a.42.42,0,0,1,0,.59A.44.44,0,0,1,149.35,767.13Z" transform="translate(-106.08 -562.33)"/><path class="cls-3" d="M156.88,798.24h0L143,797.14a.41.41,0,0,1-.37-.44.4.4,0,0,1,.44-.38l13.84,1.1a.42.42,0,0,1,.38.44A.41.41,0,0,1,156.88,798.24Z" transform="translate(-106.08 -562.33)"/><path class="cls-3" d="M184.41,827.47a.41.41,0,0,1-.39-.3c-1.06-3.77-1.38-25-.75-48.42.73-27.23,2.44-47.49,4.58-54.22a.41.41,0,1,1,.78.25c-2.11,6.66-3.81,26.84-4.54,54-.63,23.31-.31,44.47.72,48.18a.41.41,0,0,1-.29.5Z" transform="translate(-106.08 -562.33)"/><path class="cls-3" d="M185.53,743.27a.39.39,0,0,1-.35-.2.41.41,0,0,1,.15-.57l8.7-5a.4.4,0,0,1,.56.15.41.41,0,0,1-.15.56l-8.7,5A.5.5,0,0,1,185.53,743.27Z" transform="translate(-106.08 -562.33)"/><path class="cls-3" d="M184,769.63a.41.41,0,0,1-.15-.8l16.43-6.38a.43.43,0,0,1,.54.24.41.41,0,0,1-.24.53l-16.43,6.38Z" transform="translate(-106.08 -562.33)"/><path class="cls-3" d="M183.41,792.58a.41.41,0,0,1-.07-.82l17.72-3.45a.43.43,0,0,1,.49.33.41.41,0,0,1-.33.48l-17.73,3.45Z" transform="translate(-106.08 -562.33)"/><path class="cls-3" d="M196.6,817l-13-.07a.41.41,0,1,1,0-.82l13.05.07a.41.41,0,1,1,0,.82Z" transform="translate(-106.08 -562.33)"/><path class="cls-2" d="M209.22,807.9h-.11a.44.44,0,0,1-.32-.54c2.37-9.05,19-41.55,26.2-50.13a.43.43,0,0,1,.62-.06.45.45,0,0,1,.06.63c-3.28,3.88-8.83,13.16-14.86,24.82-5.69,11-10.07,20.81-11.16,25A.44.44,0,0,1,209.22,807.9Z" transform="translate(-106.08 -562.33)"/><path class="cls-2" d="M212.18,826.8l-2.25,3.79s-1.66,34.77-12.75,34.77H156.3c-11.23,0-12.75-35.22-12.75-35.22l-2.25-3.34a1.65,1.65,0,0,1,1.8-1.43h67.28A1.65,1.65,0,0,1,212.18,826.8Z" transform="translate(-106.08 -562.33)"/><path class="cls-2" d="M202.23,826.8,200,830.59s-1.66,34.77-12.75,34.77H156.3c-11.23,0-12.75-35.22-12.75-35.22l-2.25-3.34a1.65,1.65,0,0,1,1.8-1.43h57.33A1.64,1.64,0,0,1,202.23,826.8Z" transform="translate(-106.08 -562.33)"/></g><path class="cls-2" d="M458.34,636.17V566c0-.85,1-1.54,2.14-1.54H580.37c1.19,0,2.15.69,2.15,1.54v70.21c0,.85-1,1.54-2.15,1.54H460.48C459.3,637.71,458.34,637,458.34,636.17Zm4.29-68.66v67.11h115.6V567.51Z" transform="translate(-106.08 -562.33)"/><rect class="cls-2" x="497.78" y="554.57" width="45.29" height="93" transform="translate(1015.41 -481.69) rotate(90)"/><path class="cls-4" d="M482.86,593.71a27.13,27.13,0,0,1,4.11-.31c2.64,0,4.44.57,5.74,1.71a6.77,6.77,0,0,1,2.22,5.45,7.84,7.84,0,0,1-2.2,5.89c-1.41,1.34-3.65,2-6.39,2a27.28,27.28,0,0,1-3.48-.2Zm2.58,12.56a8.56,8.56,0,0,0,1.42.07c3.35,0,5.34-1.94,5.34-5.69,0-3.25-1.78-5.14-5-5.14a7.87,7.87,0,0,0-1.76.15Z" transform="translate(-106.08 -562.33)"/><path class="cls-4" d="M509.69,600.76c0,5-2.87,7.8-6.74,7.8s-6.52-3.21-6.52-7.54c0-4.57,2.75-7.77,6.73-7.77S509.69,596.52,509.69,600.76Zm-10.53.2c0,3,1.44,5.42,3.91,5.42s3.9-2.44,3.9-5.53c0-2.79-1.32-5.43-3.9-5.43S499.16,597.9,499.16,601Z" transform="translate(-106.08 -562.33)"/><path class="cls-4" d="M522,607.9a9.11,9.11,0,0,1-3.67.66c-4.48,0-7.2-2.95-7.2-7.47,0-4.88,3.25-7.82,7.56-7.82a7.65,7.65,0,0,1,3.42.66l-.55,2.15a6.61,6.61,0,0,0-2.76-.57c-2.87,0-5,1.89-5,5.45,0,3.27,1.8,5.33,4.93,5.33a7.64,7.64,0,0,0,2.8-.52Z" transform="translate(-106.08 -562.33)"/><path class="cls-4" d="M527.35,595.77h-4v-2.26H534v2.26h-4.06v12.54h-2.58Z" transform="translate(-106.08 -562.33)"/><path class="cls-4" d="M547.59,600.76c0,5-2.87,7.8-6.75,7.8s-6.52-3.21-6.52-7.54c0-4.57,2.75-7.77,6.73-7.77S547.59,596.52,547.59,600.76Zm-10.54.2c0,3,1.44,5.42,3.92,5.42s3.89-2.44,3.89-5.53c0-2.79-1.32-5.43-3.89-5.43S537.05,597.9,537.05,601Z" transform="translate(-106.08 -562.33)"/><path class="cls-4" d="M549.8,593.73a21,21,0,0,1,3.9-.33c2,0,3.39.35,4.36,1.19a4.06,4.06,0,0,1-1.36,6.67v.07a3.68,3.68,0,0,1,2,2.85,36.57,36.57,0,0,0,1.11,4.13h-2.64a19.39,19.39,0,0,1-.95-3.49c-.42-1.93-1.06-2.55-2.53-2.59h-1.3v6.08H549.8Zm2.56,6.52h1.53c1.74,0,2.81-1,2.81-2.43s-1.07-2.38-2.75-2.38a7.45,7.45,0,0,0-1.59.13Z" transform="translate(-106.08 -562.33)"/><path class="cls-2" d="M120.28,868.18H505.74a2.73,2.73,0,0,0,2.73-2.73h0a2.74,2.74,0,0,0-2.73-2.74H120.28a2.74,2.74,0,0,0-2.74,2.74h0A2.74,2.74,0,0,0,120.28,868.18Z" transform="translate(-106.08 -562.33)"/><g id="nurse"><path class="cls-5" d="M210,864.45c-.61-.09-7.92-8.57-14.29-16.44-.86-1.07-.72-3.51-1.53-4.53-.38-.49-1.75.41-2.12-.06-3.63-4.64-6.25-8.3-5.87-8.62a31,31,0,0,1,13-6.27c1.06,2.17,5.41,6.42,6.1,6.17a88.25,88.25,0,0,0,.45,14.16C206.55,852.59,212.62,861.29,210,864.45Z" transform="translate(-106.08 -562.33)"/><path class="cls-5" d="M337.77,866.61c-.43.38-10.35.52-19.95.37-1.13,0-4.31-1.84-5.41-1.87s-.1,1.75-1.13,1.71c-6.44-.21-11.52-.57-11.52-1.1a31.14,31.14,0,0,1,3.57-14c2.34.59,8.4,0,8.65-.69a88.06,88.06,0,0,0,11.12,8.78C326.49,861.59,337.05,862.56,337.77,866.61Z" transform="translate(-106.08 -562.33)"/><path class="cls-6" d="M283.24,578c0-12.88-12.59-18.7-21.14-14.07-3.83,2.07-7,8.23-5.17,12.34-5.38-4.2-12.59-.47-12.56,7,0,6.77,9,18.15,21,13.92C272.27,594.67,283.24,585.85,283.24,578Z" transform="translate(-106.08 -562.33)"/><path class="cls-7" d="M300.5,659.42c3.49,2.4,32.78,5.08,35.06,4.77s5.15-1.65,10.51-1.41c1.73.08,6.77,8.43,6.11,10.7s-4.71-3.24-6.23-3.12c-2,.15-4.81.88-6,2.27-1.95,2.26-4.93,4-5.73,2.39a33.27,33.27,0,0,1-1.71-4.38c-.64-1.35-34.18,5.89-35.7,1.45-.94-2.77-16.32-38.78-14.87-42.13C282.82,627.92,299.12,658.48,300.5,659.42Z" transform="translate(-106.08 -562.33)"/><path class="cls-8" d="M312,851.05c-.76-7.36-15.43-60.09-11.1-84.21,2.11-11.72,5.14-71.17-10.66-90.09-1.85-2.21-15.67-4.84-21.27-7-1.74,8.84-7.87,17.33-9.16,26.27-1.65,11.44,19.45,72,20.24,72-3.46,6.59-6.32,15-4.7,22.57,2.44,11.38,18.24,46.42,25.36,62.32C300.93,853.39,312,853.38,312,851.05Z" transform="translate(-106.08 -562.33)"/><path class="cls-9" d="M281.54,704.68c1.37-16.16,2.11-25.3,4.33-38.54-9-2.64-32.46-2.28-32.18,1.85.33,4.89-16.51,25.49-20.23,39.19s12.24,55.2,11.78,57.55c-.6,3-9.48,1.55-15.92,7-14.25,12-26.07,45.27-32.69,54.09-.36.47,7.35,10.92,9.69,9.32,13.31-18.68,56.5-53.05,58.31-56.45C269.15,770.2,280.42,718,281.54,704.68Z" transform="translate(-106.08 -562.33)"/><path class="cls-10" d="M263.8,609.66c-3.36,1.52-11.91,10.36-12.91,14.44-.64,2.59,2.48,33.63-2.18,54.33-2,8.92,48.48,10.79,48.43,9.34-.47-14.76.73-44.16,0-51.5-.47-4.75-16.59-21-19.46-24.67C275,608.23,272.73,605.65,263.8,609.66Z" transform="translate(-106.08 -562.33)"/><path class="cls-7" d="M264.8,588.15c-.5,7.86-4.31,21.91-4.78,25.07-.57,3.92,8.24,6.81,12.48,5.69s5.48-3.36,5.61-4.86-3.56-12.91-4.45-23.42C272.94,582.25,265,585,264.8,588.15Z" transform="translate(-106.08 -562.33)"/><path class="cls-11" d="M279.3,571.27c7,11.56,3.62,27.45-1.19,29-3.94,1.25-16.72-3.65-16.08-12.81a4.14,4.14,0,0,1-3.8-5.4c1.2-2.57,3-.11,4,.05C264.56,573.82,279.3,571.27,279.3,571.27Z" transform="translate(-106.08 -562.33)"/><path class="cls-11" d="M330.28,669.71c3.14-2.45,6.64-4.5,8.08-4.88s7.67.63,8.88,1.33,3.8,7.32,3.22,9-3.71-2-4.27-2.2-5.28-.37-6.13.84c-1.61,2.3-1.28,3.33-3.32,4.39s-6.56-1.77-6.56-1.77S327.73,671.71,330.28,669.71Z" transform="translate(-106.08 -562.33)"/><path class="cls-11" d="M260,656.81c8.95,12.9,19.43,26.69,28,26.69s44.49-6.88,46-6.59-3.73-7.2-3.73-7.2-32.82-.52-36.3-1.24-24.93-29.93-24.93-29.93Z" transform="translate(-106.08 -562.33)"/><path class="cls-12" d="M250.89,624.1c-8.57,8.32,3.67,35.59,5.8,37.75,5.19,5.24,26.32-7.62,25.21-12.53C280.61,643.61,259.05,616.18,250.89,624.1Z" transform="translate(-106.08 -562.33)"/></g><g id="patient"><circle class="cls-13" cx="481.53" cy="849.45" r="17.58" transform="translate(-508.24 702.48) rotate(-85.63)"/><path class="cls-14" d="M481.53,862.21a12.76,12.76,0,1,1,12.77-12.76A12.78,12.78,0,0,1,481.53,862.21Zm0-20.21a7.46,7.46,0,1,0,7.46,7.45A7.46,7.46,0,0,0,481.53,842Z" transform="translate(-106.08 -562.33)"/><rect class="cls-14" x="313.2" y="190.69" width="3.03" height="110.87"/><rect class="cls-14" x="419.28" y="753.02" width="3.03" height="110.87" transform="translate(-357.21 -369.65) rotate(-20)"/><rect class="cls-14" x="419.28" y="753.02" width="3.03" height="110.87" transform="translate(-527.3 -102.7) rotate(-40)"/><rect class="cls-14" x="419.28" y="753.02" width="3.03" height="110.86" transform="matrix(0.5, -0.87, 0.87, 0.5, -595.82, 206.31)"/><rect class="cls-14" x="419.28" y="753.02" width="3.03" height="110.87" transform="translate(-554.52 520.14) rotate(-80)"/><rect class="cls-14" x="365.36" y="806.93" width="110.87" height="3.03" transform="translate(-240.14 -476.93) rotate(-10)"/><rect class="cls-14" x="365.36" y="806.93" width="110.86" height="3.03" transform="translate(-453.96 -243.57) rotate(-30)"/><rect class="cls-14" x="365.36" y="806.93" width="110.87" height="3.03" transform="translate(-575.09 48.9) rotate(-50.01)"/><rect class="cls-14" x="365.36" y="806.93" width="110.87" height="3.03" transform="translate(-588.91 364.95) rotate(-69.99)"/><path class="cls-13" d="M420.8,757a51.45,51.45,0,1,1-51.45,51.45A51.51,51.51,0,0,1,420.8,757Zm0-8.54a60,60,0,1,0,0,120c33.13,0,60-22,60-60a60,60,0,0,0-60-60Z" transform="translate(-106.08 -562.33)"/><path class="cls-14" d="M420.8,758a50.45,50.45,0,1,1-50.45,50.45A50.5,50.5,0,0,1,420.8,758Zm0-3a53.48,53.48,0,1,0,53.47,53.48A53.48,53.48,0,0,0,420.8,755Z" transform="translate(-106.08 -562.33)"/><circle class="cls-13" cx="420.8" cy="808.45" r="10.77" transform="translate(-356.48 -370.45) rotate(-19.93)"/><path class="cls-14" d="M420.8,815.3a6.85,6.85,0,1,1,6.84-6.85A6.86,6.86,0,0,1,420.8,815.3Zm0-9.91a3.06,3.06,0,1,0,3.05,3.06A3.06,3.06,0,0,0,420.8,805.39Z" transform="translate(-106.08 -562.33)"/><path class="cls-5" d="M508.57,858.12H481.22a4.17,4.17,0,0,1-4.17-4.17V782.58H393.19a4.18,4.18,0,0,1-4.14-3.67l-11.57-94.74L357,680h-14.5a4.17,4.17,0,1,1,0-8.34h14.92a3.84,3.84,0,0,1,.83.09l23.87,4.85a4.15,4.15,0,0,1,3.31,3.58l11.49,94.06h84.34a4.17,4.17,0,0,1,4.17,4.17v71.37h23.18a4.17,4.17,0,0,1,0,8.34Z" transform="translate(-106.08 -562.33)"/><path class="cls-5" d="M485.39,778.41h-8.34V742.6a4.79,4.79,0,0,0-4.79-4.78H388v-8.34h84.29a13.14,13.14,0,0,1,13.13,13.12Z" transform="translate(-106.08 -562.33)"/><path class="cls-7" d="M469.54,701.11a17.3,17.3,0,0,1,1-5.36c.6-1.25,2.82-2.87,4.56-4.3,1.39-1.15,2.39-2.29,2.67-2.15.67.34,1.12,2.09-.9,3.8-1.24,1-1.46,3.37-.54,2.78,1.12-.71,3.35-2.11,5.46-3.24,2.29-1.22,6.05-7.63,7.32-5.85.75,1-4.28,7.47-4.19,8.45.06.62,6.42-5.86,6.9-5.32,1.18,1.34-.5,8.37-1.68,9.42-.48.43-2,3.45-5,5.29A20.32,20.32,0,0,1,473.21,707C471.88,706.85,468.79,708.8,469.54,701.11Z" transform="translate(-106.08 -562.33)"/><path class="cls-15" d="M426.88,673.31c8.79,8.67,19,50.62,22.17,53,4.75,3.54,29.62,6.1,29.62,6.1L480,748.57s-37.64,5.11-46.59,1.78S420.62,667.15,426.88,673.31Z" transform="translate(-106.08 -562.33)"/><path class="cls-16" d="M510.1,849.45c-.43.38-10.35.52-20,.37-1.13,0-4.31-1.84-5.41-1.87s-.1,1.75-1.13,1.71c-6.44-.2-11.52-.57-11.52-1.1a31,31,0,0,1,3.57-14c2.34.59,8.4,0,8.65-.68a87.73,87.73,0,0,0,11.12,8.77C498.82,844.44,509.38,845.4,510.1,849.45Z" transform="translate(-106.08 -562.33)"/><path class="cls-8" d="M435.15,751.48c28.74-8.51,51.47-9.89,62.17,0,7.15,6.6-11.13,83.5-11.13,83.5H475s-2.17-57.32-5.89-58.81-83.92,9.32-85.41,2.24,12.31-27.61,12.31-27.61Z" transform="translate(-106.08 -562.33)"/><path class="cls-17" d="M398.42,667.67c-14.79,3.92-30.11,29.16-27,54.49,2.66,21.8,8.36,56.25,13.58,56.25s51.5-21.37,62.29-24.09c1.54-.38-15.76-17.76-17-27.14-1.62-11.93,6.21-43.68-4.72-55.59C417.8,663.19,403.87,666.22,398.42,667.67Z" transform="translate(-106.08 -562.33)"/><path class="cls-15" d="M386.85,686.48c-15.68,17.7,33.16,48,45,45.67,14.65-2.84,40.5-22.18,41.91-24.18.8-1.14-3.9-10-5.23-9.45-4.1,1.81-30.51,6.73-36,8.83S398.3,673.55,386.85,686.48Z" transform="translate(-106.08 -562.33)"/><path class="cls-4" d="M423.4,623.9c2.83,2.58-2.06,12.18-4,13.63-4.42,3.27-13,16.43-16.71,15.75s-8.8-12.76-8.28-20.48C395.05,623,417.87,618.84,423.4,623.9Z" transform="translate(-106.08 -562.33)"/><path class="cls-7" d="M400.67,639.28c-1.41,12.71-4.83,31.1-5.77,33.38s8.3,7.35,15,7.4c9.21.06,12.31-2.9,12.31-5S419.86,657,419.86,657L414.23,641Z" transform="translate(-106.08 -562.33)"/><path class="cls-7" d="M413.43,625.13c6.13-1.26,11.73.69,12.77,11.56.3,3.16,6.06,7.94,5.66,10-.32,1.6-4.33-.65-4.33-.17,0,4.09-1.25,6-2.68,9.84C422.61,662.37,403.66,627.14,413.43,625.13Z" transform="translate(-106.08 -562.33)"/><path class="cls-4" d="M421.22,646.79c2.16-.89,5.79-.89,7.17.05s1.91,12.27-.2,14.43-7.32.37-10.13-1.6c-6.43-4.51-8.76-21.19-7.7-21.18,1.78,0,2.54,1.35,3.06,2.42C418.16,650.72,419.67,647.43,421.22,646.79Z" transform="translate(-106.08 -562.33)"/><path class="cls-4" d="M394.49,632c-1,7.25,3.41,18.46,4.44,20s8.07.76,9.42-1.59c2.15-3.73-.9-18.41-.9-18.41Z" transform="translate(-106.08 -562.33)"/><path class="cls-7" d="M410.36,638.49c-2.59-1.22-6.77-1.91-4.75,3.44s5.29,4.67,5.87,4S410.9,638.74,410.36,638.49Z" transform="translate(-106.08 -562.33)"/><path class="cls-7" d="M425.6,653.36c-2.85,0-6.43-1-8-3.33a.57.57,0,0,1,.93-.65c1.37,2,4.64,2.84,7.11,2.84h0a.56.56,0,0,1,.56.57.57.57,0,0,1-.56.57Z" transform="translate(-106.08 -562.33)"/><path class="cls-18" d="M501.65,849.45c-.43.38-10.36.52-20,.37-1.12,0-4.3-1.84-5.41-1.87s-.09,1.75-1.12,1.71c-6.45-.2-11.53-.57-11.53-1.1a31.11,31.11,0,0,1,3.58-14c2.34.59,8.39,0,8.64-.68A88.37,88.37,0,0,0,487,842.67C490.36,844.44,500.93,845.4,501.65,849.45Z" transform="translate(-106.08 -562.33)"/><path class="cls-9" d="M417.38,752.71c32.69-9.29,63.46-8.9,72.48-1.23,9.91,8.42-10.32,76.81-12.13,83.5H466.59c-.76-9.86-.56-57.3-4.12-58.73-3.72-1.49-79.85,8.87-81.34,1.78s6.47-27.23,6.47-27.23Z" transform="translate(-106.08 -562.33)"/><path class="cls-5" d="M379,780.64l19.4,1.25,71.92-2.16s5.31-15,1.82-18.3-96.49,0-96.49,0Z" transform="translate(-106.08 -562.33)"/><path class="cls-8" d="M508.57,858.12H466.3a4.17,4.17,0,0,1-4.17-4.17V782.58H378.27a4.18,4.18,0,0,1-4.14-3.67l-11.57-94.74-20.93-4.25a4.17,4.17,0,0,1,1.66-8.17l23.88,4.85a4.15,4.15,0,0,1,3.3,3.58L382,774.24H466.3a4.17,4.17,0,0,1,4.17,4.17v71.37h38.1a4.17,4.17,0,0,1,0,8.34Z" transform="translate(-106.08 -562.33)"/><path class="cls-8" d="M470.47,778.41h-8.34V742.6a4.79,4.79,0,0,0-4.79-4.78H373.05v-8.34h84.29a13.14,13.14,0,0,1,13.13,13.12Z" transform="translate(-106.08 -562.33)"/><circle class="cls-5" cx="466.62" cy="849.45" r="17.58" transform="translate(-395.63 -319.1) rotate(-22.5)"/><path class="cls-19" d="M466.62,862.21a12.76,12.76,0,1,1,12.76-12.76A12.78,12.78,0,0,1,466.62,862.21Zm0-20.21a7.46,7.46,0,1,0,7.45,7.45A7.46,7.46,0,0,0,466.62,842Z" transform="translate(-106.08 -562.33)"/><rect class="cls-19" x="290.82" y="190.69" width="3.03" height="110.87"/><rect class="cls-19" x="396.9" y="753.02" width="3.03" height="110.87" transform="matrix(0.94, -0.34, 0.34, 0.94, -358.56, -377.31)"/><rect class="cls-19" x="396.9" y="753.02" width="3.03" height="110.86" transform="translate(-532.53 -117.09) rotate(-40)"/><rect class="cls-19" x="396.9" y="753.02" width="3.03" height="110.87" transform="translate(-607.01 186.93) rotate(-60)"/><rect class="cls-19" x="396.9" y="753.02" width="3.03" height="110.87" transform="translate(-573.01 498.1) rotate(-80)"/><rect class="cls-19" x="342.98" y="806.93" width="110.87" height="3.03" transform="translate(-240.48 -480.82) rotate(-10)"/><rect class="cls-19" x="342.98" y="806.93" width="110.87" height="3.03" transform="translate(-456.94 -254.79) rotate(-30)"/><rect class="cls-19" x="342.98" y="806.93" width="110.86" height="3.03" transform="translate(-583.09 31.75) rotate(-50.01)"/><rect class="cls-19" x="342.98" y="806.93" width="110.87" height="3.03" transform="translate(-603.63 343.92) rotate(-69.99)"/><path class="cls-5" d="M398.42,757A51.45,51.45,0,1,1,347,808.45,51.51,51.51,0,0,1,398.42,757Zm0-8.54a60,60,0,1,0,60,60,60,60,0,0,0-60-60Z" transform="translate(-106.08 -562.33)"/><path class="cls-19" d="M398.42,758A50.45,50.45,0,1,1,348,808.45,50.5,50.5,0,0,1,398.42,758Zm0-3a53.48,53.48,0,1,0,53.47,53.48A53.48,53.48,0,0,0,398.42,755Z" transform="translate(-106.08 -562.33)"/><circle class="cls-5" cx="398.42" cy="808.45" r="10.77" transform="translate(-601.96 358.21) rotate(-70.91)"/><path class="cls-19" d="M398.42,815.3a6.85,6.85,0,1,1,6.85-6.85A6.86,6.86,0,0,1,398.42,815.3Zm0-9.91a3.06,3.06,0,1,0,3.05,3.06A3.06,3.06,0,0,0,398.42,805.39Z" transform="translate(-106.08 -562.33)"/><path class="cls-11" d="M489.28,731.74c1.92.68,2.26,12.6.73,14.69-.57.79-7.25,1.09-9.6.52-.64-.16-.83-.45-1.9-.71-3-.74-3-7.74-3.22-9.08-.24-1.66.8-8.18,4.07-8.09.35,0,3.09,1.06,5.76,2A28.58,28.58,0,0,0,489.28,731.74Z" transform="translate(-106.08 -562.33)"/><path class="cls-20" d="M485.43,735a31.66,31.66,0,0,1-3.19-.24c-1.21-.14-3-.33-3.32-.1a.38.38,0,1,1-.5-.57c.49-.43,1.74-.32,3.9-.09,1.71.19,3.64.4,4.51.07,1.81-.67,1.73-1.55,1.72-1.58a.39.39,0,0,1,.32-.43.37.37,0,0,1,.43.3c0,.06.24,1.51-2.2,2.42A5,5,0,0,1,485.43,735Z" transform="translate(-106.08 -562.33)"/><path class="cls-20" d="M483.25,745.76l-.1,0c-1-.28-2.2-1.61-3.08-3.54s-1.59-4.79-.73-6.58a.37.37,0,0,1,.5-.18.38.38,0,0,1,.18.51c-.7,1.45-.13,4,.74,5.93.76,1.68,1.78,2.91,2.59,3.13a.38.38,0,0,1-.1.75Z" transform="translate(-106.08 -562.33)"/></g></svg>