<svg id="Layer_1" data-name="Layer 1" xmlns="http://www.w3.org/2000/svg" viewBox="0 0 386.77 367.24"><defs><style>.cls-1{fill:#443d4f;}.cls-2{fill:#51d65e;}.cls-3{fill:#51495b;}.cls-4{fill:#efe6e8;}.cls-5{fill:#2661e4;}.cls-6{fill:#778491;}.cls-7{fill:#2b80fc;}.cls-8{fill:#ffcaa6;}.cls-9{fill:#d1b3a1;}.cls-10{fill:#3098be;}.cls-11{fill:#62e86b;}.cls-12{fill:#d4e3fb;}.cls-13{fill:#e9e9f2;}</style></defs><path class="cls-1" d="M834.27,195S803.94,246.08,802.39,255s0,44,0,44h19.19s.77-9.38,1.55-16.3-1.24-12.91-.47-15.53,43.64-45.66,43.64-46.58,1.08-22,1.08-22Z" transform="translate(-636.73 -9.93)"/><path class="cls-2" d="M884.91,71.18S902.85,73,905.45,83.11s-.46,55.83,0,64.82,20,49.57-17.87,51.42S865.3,78,884.91,71.18Z" transform="translate(-636.73 -9.93)"/><polygon class="cls-3" points="136.58 318.37 106 8.7 103.22 8.7 134.66 318.37 136.58 318.37"/><path class="cls-4" d="M847.57,39.46s-3.05,1.94-3.05,7,3.9,6.24,3.9,6.24l5-10.87Z" transform="translate(-636.73 -9.93)"/><path class="cls-5" d="M839.6,87.5s-6.34,5.77-13.13,16.84-16.69,30-27.38,37.86S759.44,150,759.44,150v10.84s43.56,11,61-4.21S839.6,87.5,839.6,87.5Z" transform="translate(-636.73 -9.93)"/><path class="cls-3" d="M884.12,183.53s2.76,11.08,4.3,38.8c1.48,26.48-1.54,53.06-1.11,59.76h-20l-16.94-64.62-3.75-34.13Z" transform="translate(-636.73 -9.93)"/><path class="cls-6" d="M815,322.2s2,6,0,6.05-17.91,0-17.91,0-3.88-1.31-2.42-3,9.88-1.74,9.69-3.19C805.2,320.73,815,322.2,815,322.2Z" transform="translate(-636.73 -9.93)"/><path class="cls-6" d="M887.91,345.48s2.05,6.66,0,6.76-17.91,0-17.91,0-3.88-1.31-2.43-3,10.13-2.29,9.94-3.75C878.42,344.16,887.91,345.48,887.91,345.48Z" transform="translate(-636.73 -9.93)"/><path class="cls-3" d="M867.29,282.09l9.93,63.39h11.61s3.86-24.07,1.89-37.5-3.41-21.16-3.41-25.89S867.29,282.09,867.29,282.09Z" transform="translate(-636.73 -9.93)"/><path class="cls-7" d="M887.76,206.28a3.2,3.2,0,0,0,3.21-3c.85-15.71,1.31-47.53,2.1-60.55,1.18-19.48,6.12-44.66,5.48-52.49s-16.89-10.93-16.89-10.93l-22.3-1.18s-14.45.34-19.76,9.39c-3.15,5.37-10.23,26.11-15,56-5.75,36.25-2.55,44.86-1.09,58.37.25,2.37,1.71,4.4,4.11,4.4Z" transform="translate(-636.73 -9.93)"/><path class="cls-8" d="M862.87,67s.36,7,0,8.88-3.51,2.21-3.51,2.21-7.48,17.34,4.19,14.75,18.11-13.57,18.11-13.57-3.16-3.82-3.37-6.5c-.33-4.28.06-13,.06-13Z" transform="translate(-636.73 -9.93)"/><path class="cls-7" d="M892.53,83.11s9.88,4.71,21.8,15.27,29.47,35.76,24.32,51.8-42.17,24-42.17,24l-4-9.6s19.38-12.8,21.64-21.44-21.64-23.36-21.64-23.36S888.61,93.76,892.53,83.11Z" transform="translate(-636.73 -9.93)"/><polygon class="cls-5" points="258.51 111.66 252.1 104.78 254.43 189.43 258.51 111.66"/><path class="cls-9" d="M893.24,166.35s-6-2.2-10.24-1.4-9.42,5.68-8.29,7.52,7.33.24,10.31,0,6,3.75,11.09.87Z" transform="translate(-636.73 -9.93)"/><path class="cls-9" d="M759.44,151.39s-6.19-2.77-8.59-2.46-3.79,3-3.4,6.92.85,6.15,5.26,5.61a17.66,17.66,0,0,0,6.73-2Z" transform="translate(-636.73 -9.93)"/><path class="cls-6" d="M801.54,295.69h21.3l-7.13,32L803.07,323s1.42-.05.72-6.34S801.54,295.69,801.54,295.69Z" transform="translate(-636.73 -9.93)"/><path class="cls-6" d="M872.33,319.68h19.35s-1.39,24.24-3,31.95c-7.61-2.75-14.61-4.58-14.61-4.58s3-.39,2.49-3.86S872.33,319.68,872.33,319.68Z" transform="translate(-636.73 -9.93)"/><path class="cls-9" d="M885,52.09C880.87,67.64,868.85,80.56,859,78s-13.91-19.74-9.77-35.29,14.87-23.62,24.77-21S889.16,36.54,885,52.09Z" transform="translate(-636.73 -9.93)"/><path class="cls-5" d="M881.66,85.37s-3.49,6.23-3.72,7.76,0,18.25-17.18,23.9S835,112.38,834.84,99.49s13.74-14.75,13.74-14.75Z" transform="translate(-636.73 -9.93)"/><path class="cls-10" d="M849.21,35.19s5-17.66,9.9-20.16,36.55,7,35,17.64S890.21,47,890.21,47,861.62,45.52,849.21,35.19Z" transform="translate(-636.73 -9.93)"/><path class="cls-4" d="M847.57,57s-4.73,12.5-8.42,23-3.85,20.16,0,27.15,14.09,10.16,24.65,5,11.74-15.33,12.24-19,6.37-3.83,8.22-16.33,0-15.49,0-15.49,7.48-8,7.73-10.51-9-3.81-9-3.81-.63,3.31-1.51,6.74-5.66,8.87-9.18,9.87-7-4.37-14.15-6.37S847.57,57,847.57,57Z" transform="translate(-636.73 -9.93)"/><path class="cls-10" d="M825.57,36.19s7.21-3.17,16.94,2,15.79,10,24.49,10.16,16.92-.33,25.47,3.5,11.07,7.83,13.25,7.66,4.19-.5,2.6-1.25-4.7-1.75-6.63-3.25S892.47,46,884.17,43.1s-27.33-7.41-35.54-9-12.24-1.67-17.94-1.17S822.3,35.27,825.57,36.19Z" transform="translate(-636.73 -9.93)"/><polygon class="cls-11" points="103.46 11.35 53.23 38.22 107.9 59.94 103.46 11.35"/><path class="cls-11" d="M892.53,83.11S882.24,90,879.92,114.7,895.23,149,895.23,149l-1,11s-20.49-11.3-22.49-35.28,14.72-44.08,14.72-44.08A7,7,0,0,1,892.53,83.11Z" transform="translate(-636.73 -9.93)"/><path class="cls-11" d="M836.32,96.73s-10.08,34.54-12.8,53.69c.14-28,6.07-57.72,14.64-67.31C837.25,86.73,835.84,93,836.32,96.73Z" transform="translate(-636.73 -9.93)"/><path class="cls-12" d="M706.51,377.17s38.37-49.52,72-49.52,34.51.63,48,5.55,29.55,19.05,45.88,19.05,33.51,3.39,48.05,8.31,24.15,16.61,24.15,16.61Z" transform="translate(-636.73 -9.93)"/><path class="cls-13" d="M651.27,142.2h58.49s14.4-.2,16.25-6.92-11.84-7.87-11.84-7.87-5.1-18.68-18.57-19.15-17.17,14.07-17.17,14.07-4.18-9-12.31-7.63-6.26,14-6.26,14-6.74-8.87-11.84-4.95,0,7.84,0,7.84-10-.23-11.15,5.07S641.52,142.2,651.27,142.2Z" transform="translate(-636.73 -9.93)"/><path class="cls-13" d="M948.61,281.23h58.46s14.39-.2,16.25-6.92-11.84-7.87-11.84-7.87-5.11-18.68-18.57-19.14-17.18,14.07-17.18,14.07-4.18-9-12.3-7.63-6.27,14-6.27,14-6.73-8.87-11.84-4.95,0,7.84,0,7.84-10-.23-11.14,5.08S938.86,281.23,948.61,281.23Z" transform="translate(-636.73 -9.93)"/><path class="cls-13" d="M934.28,38h58.06s7.52-.48,7.11-7-9.61-3.74-9.61-3.74,2.78-15.63-11.56-17.15-14.06,10.65-14.06,10.65-2-4.15-4.32-3.6-2.92,5.4-2.92,5.4-6.13-12.18-18.38-7.61-6.53,15.23-6.53,15.23-6-1.29-7.6,2.72S926.76,38,934.28,38Z" transform="translate(-636.73 -9.93)"/></svg>